<svg data-v-d3f97b9e="" xmlns="http://www.w3.org/2000/svg" viewBox="0 0 526 90"><!----><!----><!----><g data-v-d3f97b9e="" id="c1beab08-f8d4-4344-b232-460185decffb" fill="#2F190E" transform="matrix(5.175252815109623,0,0,5.175252815109623,125.67618808414974,0.3728554417902572)"><path d="M7.35 5.96L7.35 5.96L7.35 5.96Q7.07 5.40 6.65 5.03L6.65 5.03L6.65 5.03Q6.23 4.66 5.60 4.56L5.60 4.56L5.60 4.56Q4.73 4.42 4.09 4.84L4.09 4.84L4.09 4.84Q3.46 5.25 3.04 5.96L3.04 5.96L3.04 5.96Q2.84 6.30 2.66 6.64L2.66 6.64L2.66 6.64Q2.48 6.97 2.35 7.34L2.35 7.34L2.35 7.34Q2.18 7.83 2.12 8.43L2.12 8.43L2.12 8.43Q2.06 9.03 2.16 9.61L2.16 9.61L2.16 9.61Q2.27 10.19 2.56 10.67L2.56 10.67L2.56 10.67Q2.86 11.14 3.40 11.40L3.40 11.40L3.40 11.40Q4.06 11.69 4.81 11.61L4.81 11.61L4.81 11.61Q5.56 11.52 6.15 11.14L6.15 11.14L6.15 11.14Q6.29 11.06 6.51 10.88L6.51 10.88L6.51 10.88Q6.73 10.71 6.95 10.51L6.95 10.51L6.95 10.51Q7.17 10.30 7.34 10.09L7.34 10.09L7.34 10.09Q7.52 9.88 7.59 9.73L7.59 9.73L7.59 9.73Q7.84 9.76 8.04 9.97L8.04 9.97L8.04 9.97Q8.25 10.18 8.44 10.32L8.44 10.32L8.44 10.32Q8.43 10.49 8.41 10.60L8.41 10.60L8.41 10.60Q8.39 10.71 8.27 10.84L8.27 10.84L8.27 10.84Q8.22 11.02 8.09 11.20L8.09 11.20L8.09 11.20Q7.97 11.38 7.81 11.55L7.81 11.55L7.81 11.55Q7.66 11.72 7.49 11.87L7.49 11.87L7.49 11.87Q7.32 12.01 7.17 12.12L7.17 12.12L7.17 12.12Q6.54 12.57 5.82 12.80L5.82 12.80L5.82 12.80Q5.10 13.03 4.36 13.03L4.36 13.03L4.36 13.03Q3.63 13.02 2.93 12.75L2.93 12.75L2.93 12.75Q2.24 12.47 1.69 11.89L1.69 11.89L1.69 11.89Q1.50 11.69 1.38 11.49L1.38 11.49L1.38 11.49Q1.26 11.30 1.15 11.06L1.15 11.06L1.15 11.06Q1.09 10.95 1.00 10.76L1.00 10.76L1.00 10.76Q0.91 10.57 0.84 10.36L0.84 10.36L0.84 10.36Q0.77 10.15 0.73 9.96L0.73 9.96L0.73 9.96Q0.69 9.77 0.71 9.66L0.71 9.66L0.71 9.66Q0.67 9.53 0.64 9.33L0.64 9.33L0.64 9.33Q0.62 9.13 0.60 8.97L0.60 8.97L0.60 8.97Q0.56 8.29 0.71 7.51L0.71 7.51L0.71 7.51Q0.85 6.73 1.18 6.00L1.18 6.00L1.18 6.00Q1.50 5.26 1.97 4.65L1.97 4.65L1.97 4.65Q2.45 4.03 3.05 3.65L3.05 3.65L3.05 3.65Q3.47 3.39 3.86 3.19L3.86 3.19L3.86 3.19Q4.26 3.00 4.66 2.90L4.66 2.90L4.66 2.90Q5.05 2.81 5.47 2.83L5.47 2.83L5.47 2.83Q5.89 2.84 6.40 3.00L6.40 3.00L6.40 3.00Q6.68 3.08 6.90 3.16L6.90 3.16L6.90 3.16Q7.13 3.23 7.36 3.42L7.36 3.42L7.36 3.42Q7.73 3.70 7.99 4.11L7.99 4.11L7.99 4.11Q8.26 4.52 8.26 4.98L8.26 4.98L8.26 4.98Q8.15 5.08 8.04 5.22L8.04 5.22L8.04 5.22Q7.92 5.36 7.81 5.50L7.81 5.50L7.81 5.50Q7.70 5.64 7.59 5.77L7.59 5.77L7.59 5.77Q7.48 5.89 7.35 5.96ZM14.24 12.56L14.24 12.56L14.24 12.56Q14.14 12.57 14.04 12.58L14.04 12.58L14.04 12.58Q13.94 12.59 13.85 12.61L13.85 12.61L13.85 12.61Q13.65 12.68 13.48 12.66L13.48 12.66L13.48 12.66Q13.31 12.63 13.16 12.56L13.16 12.56L13.16 12.56Q13.17 12.05 13.19 11.68L13.19 11.68L13.19 11.68Q13.20 11.30 13.23 10.79L13.23 10.79L13.23 10.79Q13.24 10.50 13.24 10.19L13.24 10.19L13.24 10.19Q13.23 9.87 13.19 9.58L13.19 9.58L13.19 9.58Q13.08 8.89 12.75 8.67L12.75 8.67L12.75 8.67Q12.42 8.46 12.05 8.55L12.05 8.55L12.05 8.55Q11.68 8.64 11.35 8.95L11.35 8.95L11.35 8.95Q11.03 9.27 10.95 9.63L10.95 9.63L10.95 9.63Q10.78 10.35 10.77 11.07L10.77 11.07L10.77 11.07Q10.75 11.80 10.75 12.52L10.75 12.52L10.75 12.85L10.75 12.85Q10.64 12.85 10.47 12.87L10.47 12.87L10.47 12.87Q10.30 12.88 10.14 12.88L10.14 12.88L10.14 12.88Q9.97 12.88 9.83 12.83L9.83 12.83L9.83 12.83Q9.69 12.78 9.65 12.66L9.65 12.66L9.65 12.66Q9.65 12.57 9.65 12.01L9.65 12.01L9.65 12.01Q9.66 11.45 9.66 10.64L9.66 10.64L9.66 10.64Q9.66 9.83 9.67 8.87L9.67 8.87L9.67 8.87Q9.67 7.91 9.67 7.03L9.67 7.03L9.67 7.03Q9.67 6.27 9.66 5.65L9.66 5.65L9.66 5.65Q9.65 5.03 9.64 4.56L9.64 4.56L9.64 4.56Q9.63 4.10 9.63 3.84L9.63 3.84L9.63 3.84Q9.63 3.57 9.66 3.54L9.66 3.54L9.66 3.54Q9.67 3.51 9.74 3.50L9.74 3.50L9.74 3.50Q9.81 3.49 9.90 3.48L9.90 3.48L9.90 3.48Q9.98 3.47 10.05 3.47L10.05 3.47L10.05 3.47Q10.12 3.47 10.16 3.46L10.16 3.46L10.16 3.46Q10.23 3.40 10.41 3.46L10.41 3.46L10.41 3.46Q10.58 3.51 10.67 3.51L10.67 3.51L10.67 3.51Q10.68 3.58 10.70 3.94L10.70 3.94L10.70 3.94Q10.71 4.30 10.72 4.80L10.72 4.80L10.72 4.80Q10.72 5.31 10.72 5.89L10.72 5.89L10.72 5.89Q10.72 6.48 10.73 6.99L10.73 6.99L10.73 6.99Q10.74 7.50 10.74 7.87L10.74 7.87L10.74 7.87Q10.74 8.23 10.74 8.32L10.74 8.32L10.74 8.32Q11.09 7.91 11.57 7.61L11.57 7.61L11.57 7.61Q12.05 7.31 12.54 7.25L12.54 7.25L12.54 7.25Q13.02 7.20 13.45 7.43L13.45 7.43L13.45 7.43Q13.89 7.67 14.15 8.33L14.15 8.33L14.15 8.33Q14.42 8.99 14.44 9.72L14.44 9.72L14.44 9.72Q14.46 10.46 14.45 11.14L14.45 11.14L14.45 11.14Q14.45 11.30 14.44 11.49L14.44 11.49L14.44 11.49Q14.43 11.68 14.41 11.87L14.41 11.87L14.41 11.87Q14.39 12.07 14.35 12.25L14.35 12.25L14.35 12.25Q14.31 12.43 14.24 12.56ZM20.76 12.19L20.76 12.19L20.76 12.19Q20.71 12.25 20.59 12.35L20.59 12.35L20.59 12.35Q20.48 12.45 20.41 12.49L20.41 12.49L20.41 12.49Q19.63 12.96 18.76 13.08L18.76 13.08L18.76 13.08Q17.89 13.20 17.15 12.93L17.15 12.93L17.15 12.93Q16.41 12.66 15.92 11.97L15.92 11.97L15.92 11.97Q15.44 11.28 15.44 10.15L15.44 10.15L15.44 10.15Q15.44 9.53 15.65 8.99L15.65 8.99L15.65 8.99Q15.86 8.44 16.24 7.97L16.24 7.97L16.24 7.97Q16.62 7.49 17.18 7.17L17.18 7.17L17.18 7.17Q17.75 6.86 18.35 6.80L18.35 6.80L18.35 6.80Q18.96 6.73 19.51 6.95L19.51 6.95L19.51 6.95Q20.06 7.17 20.43 7.74L20.43 7.74L20.43 7.74Q20.57 7.97 20.65 8.23L20.65 8.23L20.65 8.23Q20.73 8.48 20.75 8.75L20.75 8.75L20.75 8.75Q20.76 8.89 20.78 9.06L20.78 9.06L20.78 9.06Q20.79 9.23 20.76 9.37L20.76 9.37L20.76 9.37Q20.69 9.67 20.59 9.94L20.59 9.94L20.59 9.94Q20.55 10.05 20.34 10.13L20.34 10.13L20.34 10.13Q20.13 10.21 19.88 10.25L19.88 10.25L19.88 10.25Q19.63 10.29 19.39 10.31L19.39 10.31L19.39 10.31Q19.15 10.33 19.05 10.35L19.05 10.35L19.05 10.35Q18.49 10.40 17.94 10.42L17.94 10.42L17.94 10.42Q17.39 10.44 16.83 10.46L16.83 10.46L16.74 10.51L16.74 10.51Q16.70 10.67 16.74 10.82L16.74 10.82L16.74 10.82Q16.79 11.19 17.01 11.41L17.01 11.41L17.01 11.41Q17.23 11.63 17.53 11.76L17.53 11.76L17.53 11.76Q17.82 11.89 18.16 11.94L18.16 11.94L18.16 11.94Q18.49 11.98 18.77 11.98L18.77 11.98L18.77 11.98Q19.00 11.96 19.17 11.91L19.17 11.91L19.17 11.91Q19.35 11.87 19.53 11.77L19.53 11.77L19.53 11.77Q19.71 11.66 19.93 11.47L19.93 11.47L19.93 11.47Q20.15 11.28 20.45 10.96L20.45 10.96L20.45 10.96Q20.48 10.95 20.58 11.07L20.58 11.07L20.58 11.07Q20.68 11.20 20.78 11.36L20.78 11.36L20.78 11.36Q20.89 11.52 20.98 11.67L20.98 11.67L20.98 11.67Q21.07 11.82 21.08 11.84L21.08 11.84L21.08 11.84Q21.06 11.93 20.94 12.03L20.94 12.03L20.94 12.03Q20.83 12.14 20.76 12.19ZM19.67 9.37L19.67 9.37L19.67 9.37Q19.73 9.32 19.75 9.25L19.75 9.25L19.75 9.25Q19.77 9.18 19.77 9.11L19.77 9.11L19.77 9.11Q19.80 8.93 19.74 8.69L19.74 8.69L19.74 8.69Q19.68 8.44 19.59 8.29L19.59 8.29L19.59 8.29Q19.32 7.84 18.87 7.76L18.87 7.76L18.87 7.76Q18.42 7.67 17.97 7.86L17.97 7.86L17.97 7.86Q17.51 8.05 17.16 8.46L17.16 8.46L17.16 8.46Q16.81 8.86 16.76 9.41L16.76 9.41L16.76 9.41Q16.83 9.49 16.94 9.52L16.94 9.52L16.94 9.52Q16.97 9.53 17.16 9.53L17.16 9.53L17.16 9.53Q17.36 9.52 17.65 9.51L17.65 9.51L17.65 9.51Q17.93 9.49 18.27 9.47L18.27 9.47L18.27 9.47Q18.61 9.45 18.90 9.44L18.90 9.44L18.90 9.44Q19.19 9.42 19.41 9.40L19.41 9.40L19.41 9.40Q19.63 9.38 19.67 9.37ZM27.50 12.19L27.50 12.19L27.50 12.19Q27.44 12.25 27.33 12.35L27.33 12.35L27.33 12.35Q27.22 12.45 27.15 12.49L27.15 12.49L27.15 12.49Q26.36 12.96 25.49 13.08L25.49 13.08L25.49 13.08Q24.63 13.20 23.88 12.93L23.88 12.93L23.88 12.93Q23.14 12.66 22.66 11.97L22.66 11.97L22.66 11.97Q22.18 11.28 22.18 10.15L22.18 10.15L22.18 10.15Q22.18 9.53 22.39 8.99L22.39 8.99L22.39 8.99Q22.60 8.44 22.97 7.97L22.97 7.97L22.97 7.97Q23.35 7.49 23.92 7.17L23.92 7.17L23.92 7.17Q24.49 6.86 25.09 6.80L25.09 6.80L25.09 6.80Q25.69 6.73 26.24 6.95L26.24 6.95L26.24 6.95Q26.80 7.17 27.16 7.74L27.16 7.74L27.16 7.74Q27.30 7.97 27.38 8.23L27.38 8.23L27.38 8.23Q27.47 8.48 27.48 8.75L27.48 8.75L27.48 8.75Q27.50 8.89 27.51 9.06L27.51 9.06L27.51 9.06Q27.52 9.23 27.50 9.37L27.50 9.37L27.50 9.37Q27.43 9.67 27.33 9.94L27.33 9.94L27.33 9.94Q27.29 10.05 27.08 10.13L27.08 10.13L27.08 10.13Q26.87 10.21 26.61 10.25L26.61 10.25L26.61 10.25Q26.36 10.29 26.12 10.31L26.12 10.31L26.12 10.31Q25.89 10.33 25.79 10.35L25.79 10.35L25.79 10.35Q25.23 10.40 24.67 10.42L24.67 10.42L24.67 10.42Q24.12 10.44 23.56 10.46L23.56 10.46L23.48 10.51L23.48 10.51Q23.44 10.67 23.48 10.82L23.48 10.82L23.48 10.82Q23.52 11.19 23.74 11.41L23.74 11.41L23.74 11.41Q23.97 11.63 24.26 11.76L24.26 11.76L24.26 11.76Q24.56 11.89 24.89 11.94L24.89 11.94L24.89 11.94Q25.23 11.98 25.51 11.98L25.51 11.98L25.51 11.98Q25.73 11.96 25.91 11.91L25.91 11.91L25.91 11.91Q26.08 11.87 26.26 11.77L26.26 11.77L26.26 11.77Q26.45 11.66 26.66 11.47L26.66 11.47L26.66 11.47Q26.88 11.28 27.19 10.96L27.19 10.96L27.19 10.96Q27.22 10.95 27.31 11.07L27.31 11.07L27.31 11.07Q27.41 11.20 27.52 11.36L27.52 11.36L27.52 11.36Q27.62 11.52 27.71 11.67L27.71 11.67L27.71 11.67Q27.80 11.82 27.82 11.84L27.82 11.84L27.82 11.84Q27.79 11.93 27.68 12.03L27.68 12.03L27.68 12.03Q27.57 12.14 27.50 12.19ZM26.40 9.37L26.40 9.37L26.40 9.37Q26.46 9.32 26.48 9.25L26.48 9.25L26.48 9.25Q26.50 9.18 26.50 9.11L26.50 9.11L26.50 9.11Q26.53 8.93 26.47 8.69L26.47 8.69L26.47 8.69Q26.42 8.44 26.32 8.29L26.32 8.29L26.32 8.29Q26.05 7.84 25.61 7.76L25.61 7.76L25.61 7.76Q25.16 7.67 24.70 7.86L24.70 7.86L24.70 7.86Q24.25 8.05 23.90 8.46L23.90 8.46L23.90 8.46Q23.55 8.86 23.49 9.41L23.49 9.41L23.49 9.41Q23.56 9.49 23.67 9.52L23.67 9.52L23.67 9.52Q23.70 9.53 23.90 9.53L23.90 9.53L23.90 9.53Q24.09 9.52 24.38 9.51L24.38 9.51L24.38 9.51Q24.67 9.49 25.00 9.47L25.00 9.47L25.00 9.47Q25.34 9.45 25.63 9.44L25.63 9.44L25.63 9.44Q25.93 9.42 26.14 9.40L26.14 9.40L26.14 9.40Q26.36 9.38 26.40 9.37ZM31.21 12.85L31.21 12.85L31.21 12.85Q30.74 12.88 30.30 12.87L30.30 12.87L30.30 12.87Q29.86 12.85 29.40 12.87L29.40 12.87L29.40 12.87Q29.25 12.88 29.10 12.91L29.10 12.91L29.10 12.91Q28.95 12.94 28.81 12.85L28.81 12.85L28.81 12.85Q28.77 12.73 28.75 12.64L28.75 12.64L28.75 12.64Q28.73 12.56 28.72 12.48L28.72 12.48L28.72 12.48Q28.71 12.40 28.73 12.31L28.73 12.31L28.73 12.31Q28.76 12.22 28.80 12.07L28.80 12.07L28.80 12.07Q28.84 11.93 29.05 11.65L29.05 11.65L29.05 11.65Q29.26 11.37 29.56 11.02L29.56 11.02L29.56 11.02Q29.86 10.67 30.21 10.28L30.21 10.28L30.21 10.28Q30.56 9.90 30.89 9.55L30.89 9.55L30.89 9.55Q31.22 9.20 31.49 8.93L31.49 8.93L31.49 8.93Q31.75 8.65 31.89 8.51L31.89 8.51L31.89 8.51Q32.00 8.40 32.10 8.27L32.10 8.27L32.10 8.27Q32.20 8.15 32.31 8.04L32.31 8.04L32.31 8.04Q31.74 7.98 31.05 7.95L31.05 7.95L31.05 7.95Q30.37 7.91 29.79 8.01L29.79 8.01L29.79 8.01Q29.64 8.04 29.48 8.06L29.48 8.06L29.48 8.06Q29.32 8.09 29.15 8.09L29.15 8.09L29.15 8.09Q29.13 7.99 29.07 7.86L29.07 7.86L29.07 7.86Q29.01 7.73 29.05 7.64L29.05 7.64L29.02 7.11L29.02 7.11Q29.19 7.01 29.42 7.02L29.42 7.02L29.42 7.02Q29.65 7.03 29.83 7L29.83 7L29.83 7Q29.89 7 30.15 6.99L30.15 6.99L30.15 6.99Q30.41 6.97 30.77 6.96L30.77 6.96L30.77 6.96Q31.14 6.96 31.55 6.96L31.55 6.96L31.55 6.96Q31.96 6.96 32.35 6.96L32.35 6.96L32.35 6.96Q32.73 6.97 33.03 6.99L33.03 6.99L33.03 6.99Q33.32 7 33.45 7.03L33.45 7.03L33.45 7.03Q33.59 7.04 33.70 7.13L33.70 7.13L33.70 7.13Q33.81 7.22 33.87 7.36L33.87 7.36L33.87 7.36Q33.94 7.50 33.94 7.67L33.94 7.67L33.94 7.67Q33.94 7.84 33.85 8.01L33.85 8.01L33.63 8.20L33.63 8.20Q33.33 8.46 32.87 8.95L32.87 8.95L32.87 8.95Q32.40 9.44 31.90 9.99L31.90 9.99L31.90 9.99Q31.40 10.54 30.96 11.07L30.96 11.07L30.96 11.07Q30.52 11.59 30.31 11.91L30.31 11.91L30.31 11.91Q30.69 11.97 31.15 11.94L31.15 11.94L31.15 11.94Q31.61 11.91 32.07 11.88L32.07 11.88L32.07 11.88Q32.54 11.84 32.96 11.84L32.96 11.84L32.96 11.84Q33.39 11.83 33.71 11.93L33.71 11.93L33.71 11.93Q33.74 12.10 33.77 12.21L33.77 12.21L33.77 12.21Q33.80 12.33 33.80 12.43L33.80 12.43L33.80 12.43Q33.81 12.53 33.79 12.63L33.79 12.63L33.79 12.63Q33.77 12.73 33.71 12.85L33.71 12.85L33.71 12.85Q33.61 12.88 33.26 12.88L33.26 12.88L33.26 12.88Q32.91 12.88 32.51 12.87L32.51 12.87L32.51 12.87Q32.10 12.87 31.72 12.86L31.72 12.86L31.72 12.86Q31.35 12.85 31.21 12.85ZM39.94 12.19L39.94 12.19L39.94 12.19Q39.89 12.25 39.77 12.35L39.77 12.35L39.77 12.35Q39.66 12.45 39.59 12.49L39.59 12.49L39.59 12.49Q38.81 12.96 37.94 13.08L37.94 13.08L37.94 13.08Q37.07 13.20 36.33 12.93L36.33 12.93L36.33 12.93Q35.59 12.66 35.11 11.97L35.11 11.97L35.11 11.97Q34.62 11.28 34.62 10.15L34.62 10.15L34.62 10.15Q34.62 9.53 34.83 8.99L34.83 8.99L34.83 8.99Q35.04 8.44 35.42 7.97L35.42 7.97L35.42 7.97Q35.80 7.49 36.37 7.17L36.37 7.17L36.37 7.17Q36.93 6.86 37.53 6.80L37.53 6.80L37.53 6.80Q38.14 6.73 38.69 6.95L38.69 6.95L38.69 6.95Q39.24 7.17 39.61 7.74L39.61 7.74L39.61 7.74Q39.75 7.97 39.83 8.23L39.83 8.23L39.83 8.23Q39.91 8.48 39.93 8.75L39.93 8.75L39.93 8.75Q39.94 8.89 39.96 9.06L39.96 9.06L39.96 9.06Q39.97 9.23 39.94 9.37L39.94 9.37L39.94 9.37Q39.87 9.67 39.77 9.94L39.77 9.94L39.77 9.94Q39.73 10.05 39.52 10.13L39.52 10.13L39.52 10.13Q39.31 10.21 39.06 10.25L39.06 10.25L39.06 10.25Q38.81 10.29 38.57 10.31L38.57 10.31L38.57 10.31Q38.33 10.33 38.23 10.35L38.23 10.35L38.23 10.35Q37.67 10.40 37.12 10.42L37.12 10.42L37.12 10.42Q36.57 10.44 36.01 10.46L36.01 10.46L35.92 10.51L35.92 10.51Q35.88 10.67 35.92 10.82L35.92 10.82L35.92 10.82Q35.97 11.19 36.19 11.41L36.19 11.41L36.19 11.41Q36.41 11.63 36.71 11.76L36.71 11.76L36.71 11.76Q37.00 11.89 37.34 11.94L37.34 11.94L37.34 11.94Q37.67 11.98 37.95 11.98L37.95 11.98L37.95 11.98Q38.18 11.96 38.35 11.91L38.35 11.91L38.35 11.91Q38.53 11.87 38.71 11.77L38.71 11.77L38.71 11.77Q38.89 11.66 39.11 11.47L39.11 11.47L39.11 11.47Q39.33 11.28 39.63 10.96L39.63 10.96L39.63 10.96Q39.66 10.95 39.76 11.07L39.76 11.07L39.76 11.07Q39.86 11.20 39.96 11.36L39.96 11.36L39.96 11.36Q40.07 11.52 40.16 11.67L40.16 11.67L40.16 11.67Q40.25 11.82 40.26 11.84L40.26 11.84L40.26 11.84Q40.24 11.93 40.12 12.03L40.12 12.03L40.12 12.03Q40.01 12.14 39.94 12.19ZM38.85 9.37L38.85 9.37L38.85 9.37Q38.91 9.32 38.93 9.25L38.93 9.25L38.93 9.25Q38.95 9.18 38.95 9.11L38.95 9.11L38.95 9.11Q38.98 8.93 38.92 8.69L38.92 8.69L38.92 8.69Q38.86 8.44 38.77 8.29L38.77 8.29L38.77 8.29Q38.50 7.84 38.05 7.76L38.05 7.76L38.05 7.76Q37.60 7.67 37.15 7.86L37.15 7.86L37.15 7.86Q36.69 8.05 36.34 8.46L36.34 8.46L36.34 8.46Q35.99 8.86 35.94 9.41L35.94 9.41L35.94 9.41Q36.01 9.49 36.12 9.52L36.12 9.52L36.12 9.52Q36.15 9.53 36.34 9.53L36.34 9.53L36.34 9.53Q36.54 9.52 36.83 9.51L36.83 9.51L36.83 9.51Q37.11 9.49 37.45 9.47L37.45 9.47L37.45 9.47Q37.79 9.45 38.08 9.44L38.08 9.44L38.08 9.44Q38.37 9.42 38.59 9.40L38.59 9.40L38.59 9.40Q38.81 9.38 38.85 9.37ZM50.34 11.24L50.34 11.24L50.34 11.24Q49.87 10.71 49.53 10.32L49.53 10.32L49.53 10.32Q49.18 9.93 49.07 9.81L49.07 9.81L49.07 9.81Q49.08 9.59 49.25 9.41L49.25 9.41L49.25 9.41Q49.42 9.24 49.70 9.02L49.70 9.02L49.70 9.02Q49.80 9.00 49.99 9.16L49.99 9.16L49.99 9.16Q50.18 9.32 50.39 9.55L50.39 9.55L50.39 9.55Q50.61 9.79 50.83 10.04L50.83 10.04L50.83 10.04Q51.04 10.30 51.20 10.49L51.20 10.49L51.20 10.49Q51.34 10.30 51.44 10.12L51.44 10.12L51.44 10.12Q51.70 9.65 51.87 9.02L51.87 9.02L51.87 9.02Q52.04 8.39 52.07 7.71L52.07 7.71L52.07 7.71Q52.09 7.04 51.98 6.40L51.98 6.40L51.98 6.40Q51.86 5.75 51.56 5.25L51.56 5.25L51.56 5.25Q51.27 4.75 50.79 4.45L50.79 4.45L50.79 4.45Q50.32 4.16 49.63 4.17L49.63 4.17L49.63 4.17Q48.93 4.20 48.42 4.54L48.42 4.54L48.42 4.54Q47.91 4.87 47.57 5.41L47.57 5.41L47.57 5.41Q47.22 5.95 47.03 6.62L47.03 6.62L47.03 6.62Q46.83 7.29 46.79 7.97L46.79 7.97L46.79 7.97Q46.73 8.64 46.82 9.29L46.82 9.29L46.82 9.29Q46.91 9.94 47.25 10.53L47.25 10.53L47.25 10.53Q47.57 11.10 48.18 11.34L48.18 11.34L48.18 11.34Q48.79 11.58 49.43 11.49L49.43 11.49L49.43 11.49Q49.94 11.44 50.34 11.24ZM53.28 14.42L53.28 14.42L53.28 14.42Q53.21 14.38 53.04 14.20L53.04 14.20L53.04 14.20Q52.86 14.03 52.61 13.76L52.61 13.76L52.61 13.76Q52.36 13.48 52.05 13.14L52.05 13.14L52.05 13.14Q51.74 12.80 51.41 12.43L51.41 12.43L51.41 12.43Q50.97 12.71 50.48 12.87L50.48 12.87L50.48 12.87Q49.98 13.03 49.39 13.03L49.39 13.03L49.39 13.03Q48.80 13.03 48.24 12.89L48.24 12.89L48.24 12.89Q47.68 12.75 47.18 12.45L47.18 12.45L47.18 12.45Q46.94 12.31 46.76 12.15L46.76 12.15L46.76 12.15Q46.58 12.00 46.43 11.83L46.43 11.83L46.43 11.83Q46.28 11.66 46.15 11.47L46.15 11.47L46.15 11.47Q46.02 11.28 45.88 11.05L45.88 11.05L45.86 11.02L45.86 11.02Q45.70 10.77 45.60 10.42L45.60 10.42L45.60 10.42Q45.50 10.07 45.44 9.68L45.44 9.68L45.44 9.68Q45.37 9.30 45.35 8.93L45.35 8.93L45.35 8.93Q45.32 8.55 45.30 8.26L45.30 8.26L45.30 8.26Q45.29 7.64 45.42 6.96L45.42 6.96L45.42 6.96Q45.56 6.29 45.84 5.64L45.84 5.64L45.84 5.64Q46.12 5.00 46.54 4.46L46.54 4.46L46.54 4.46Q46.96 3.92 47.52 3.58L47.52 3.58L47.52 3.58Q47.73 3.46 48.08 3.31L48.08 3.31L48.08 3.31Q48.43 3.16 48.83 3.05L48.83 3.05L48.83 3.05Q49.22 2.94 49.63 2.90L49.63 2.90L49.63 2.90Q50.04 2.86 50.37 2.93L50.37 2.93L50.37 2.93Q50.47 2.91 50.66 2.93L50.66 2.93L50.66 2.93Q50.85 2.95 51.05 3.00L51.05 3.00L51.05 3.00Q51.25 3.05 51.43 3.11L51.43 3.11L51.43 3.11Q51.60 3.16 51.69 3.22L51.69 3.22L51.69 3.22Q52.22 3.58 52.60 4.07L52.60 4.07L52.60 4.07Q52.98 4.55 53.24 5.14L53.24 5.14L53.24 5.14Q53.35 5.39 53.44 5.71L53.44 5.71L53.44 5.71Q53.52 6.02 53.58 6.36L53.58 6.36L53.58 6.36Q53.63 6.69 53.66 7.02L53.66 7.02L53.66 7.02Q53.69 7.35 53.69 7.62L53.69 7.62L53.69 7.62Q53.69 8.15 53.60 8.69L53.60 8.69L53.60 8.69Q53.51 9.23 53.33 9.75L53.33 9.75L53.33 9.75Q53.14 10.28 52.89 10.76L52.89 10.76L52.89 10.76Q52.63 11.24 52.28 11.65L52.28 11.65L52.28 11.65Q52.54 11.93 52.82 12.23L52.82 12.23L52.82 12.23Q53.09 12.53 53.33 12.80L53.33 12.80L53.33 12.80Q53.56 13.08 53.75 13.30L53.75 13.30L53.75 13.30Q53.94 13.52 54.03 13.65L54.03 13.65L54.03 13.65Q54.03 13.73 53.92 13.87L53.92 13.87L53.92 13.87Q53.82 14 53.68 14.13L53.68 14.13L53.68 14.13Q53.54 14.25 53.42 14.34L53.42 14.34L53.42 14.34Q53.30 14.42 53.28 14.42ZM54.84 7.17L54.84 7.17L54.84 7.17Q54.92 7.15 55.03 7.15L55.03 7.15L55.03 7.15Q55.13 7.14 55.22 7.11L55.22 7.11L55.22 7.11Q55.41 7.04 55.59 7.08L55.59 7.08L55.59 7.08Q55.76 7.11 55.92 7.18L55.92 7.18L55.92 7.18Q55.89 7.69 55.85 8.19L55.85 8.19L55.85 8.19Q55.80 8.69 55.76 9.18L55.76 9.18L55.76 9.18Q55.73 9.48 55.74 9.80L55.74 9.80L55.74 9.80Q55.75 10.12 55.79 10.42L55.79 10.42L55.79 10.42Q55.85 10.88 56.01 11.12L56.01 11.12L56.01 11.12Q56.18 11.37 56.41 11.45L56.41 11.45L56.41 11.45Q56.64 11.52 56.90 11.46L56.90 11.46L56.90 11.46Q57.16 11.40 57.39 11.24L57.39 11.24L57.39 11.24Q57.62 11.09 57.79 10.86L57.79 10.86L57.79 10.86Q57.96 10.64 58.03 10.39L58.03 10.39L58.03 10.39Q58.23 9.67 58.25 8.95L58.25 8.95L58.25 8.95Q58.28 8.23 58.31 7.52L58.31 7.52L58.31 7.18L58.31 7.18Q58.42 7.18 58.59 7.17L58.59 7.17L58.59 7.17Q58.76 7.15 58.93 7.16L58.93 7.16L58.93 7.16Q59.09 7.17 59.23 7.22L59.23 7.22L59.23 7.22Q59.37 7.27 59.42 7.39L59.42 7.39L59.42 7.39Q59.42 7.50 59.41 7.92L59.41 7.92L59.41 7.92Q59.40 8.33 59.39 8.89L59.39 8.89L59.39 8.89Q59.37 9.45 59.36 10.07L59.36 10.07L59.36 10.07Q59.35 10.70 59.33 11.23L59.33 11.23L59.33 11.23Q59.30 11.77 59.27 12.14L59.27 12.14L59.27 12.14Q59.23 12.50 59.19 12.54L59.19 12.54L59.19 12.54Q59.14 12.59 58.95 12.59L58.95 12.59L58.95 12.59Q58.76 12.60 58.67 12.61L58.67 12.61L58.67 12.61Q58.60 12.67 58.50 12.64L58.50 12.64L58.50 12.64Q58.39 12.61 58.31 12.61L58.31 12.61L58.31 12.61Q58.20 12.19 58.20 11.72L58.20 11.72L58.20 11.72Q57.82 12.12 57.33 12.41L57.33 12.41L57.33 12.41Q56.84 12.70 56.36 12.75L56.36 12.75L56.36 12.75Q55.87 12.81 55.45 12.56L55.45 12.56L55.45 12.56Q55.02 12.32 54.77 11.65L54.77 11.65L54.77 11.65Q54.52 10.98 54.52 10.26L54.52 10.26L54.52 10.26Q54.53 9.53 54.56 8.82L54.56 8.82L54.56 8.82Q54.56 8.68 54.58 8.45L54.58 8.45L54.58 8.45Q54.60 8.22 54.63 7.98L54.63 7.98L54.63 7.98Q54.66 7.74 54.71 7.52L54.71 7.52L54.71 7.52Q54.77 7.29 54.84 7.17ZM65.80 12.19L65.80 12.19L65.80 12.19Q65.74 12.25 65.63 12.35L65.63 12.35L65.63 12.35Q65.52 12.45 65.45 12.49L65.45 12.49L65.45 12.49Q64.67 12.96 63.80 13.08L63.80 13.08L63.80 13.08Q62.93 13.20 62.19 12.93L62.19 12.93L62.19 12.93Q61.45 12.66 60.96 11.97L60.96 11.97L60.96 11.97Q60.48 11.28 60.48 10.15L60.48 10.15L60.48 10.15Q60.48 9.53 60.69 8.99L60.69 8.99L60.69 8.99Q60.90 8.44 61.28 7.97L61.28 7.97L61.28 7.97Q61.66 7.49 62.22 7.17L62.22 7.17L62.22 7.17Q62.79 6.86 63.39 6.80L63.39 6.80L63.39 6.80Q63.99 6.73 64.55 6.95L64.55 6.95L64.55 6.95Q65.10 7.17 65.46 7.74L65.46 7.74L65.46 7.74Q65.60 7.97 65.69 8.23L65.69 8.23L65.69 8.23Q65.77 8.48 65.79 8.75L65.79 8.75L65.79 8.75Q65.80 8.89 65.81 9.06L65.81 9.06L65.81 9.06Q65.83 9.23 65.80 9.37L65.80 9.37L65.80 9.37Q65.73 9.67 65.63 9.94L65.63 9.94L65.63 9.94Q65.59 10.05 65.38 10.13L65.38 10.13L65.38 10.13Q65.17 10.21 64.92 10.25L64.92 10.25L64.92 10.25Q64.67 10.29 64.43 10.31L64.43 10.31L64.43 10.31Q64.19 10.33 64.09 10.35L64.09 10.35L64.09 10.35Q63.53 10.40 62.98 10.42L62.98 10.42L62.98 10.42Q62.43 10.44 61.87 10.46L61.87 10.46L61.78 10.51L61.78 10.51Q61.74 10.67 61.78 10.82L61.78 10.82L61.78 10.82Q61.82 11.19 62.05 11.41L62.05 11.41L62.05 11.41Q62.27 11.63 62.57 11.76L62.57 11.76L62.57 11.76Q62.86 11.89 63.20 11.94L63.20 11.94L63.20 11.94Q63.53 11.98 63.81 11.98L63.81 11.98L63.81 11.98Q64.04 11.96 64.21 11.91L64.21 11.91L64.21 11.91Q64.39 11.87 64.57 11.77L64.57 11.77L64.57 11.77Q64.75 11.66 64.97 11.47L64.97 11.47L64.97 11.47Q65.18 11.28 65.49 10.96L65.49 10.96L65.49 10.96Q65.52 10.95 65.62 11.07L65.62 11.07L65.62 11.07Q65.72 11.20 65.82 11.36L65.82 11.36L65.82 11.36Q65.93 11.52 66.02 11.67L66.02 11.67L66.02 11.67Q66.11 11.82 66.12 11.84L66.12 11.84L66.12 11.84Q66.09 11.93 65.98 12.03L65.98 12.03L65.98 12.03Q65.87 12.14 65.80 12.19ZM64.71 9.37L64.71 9.37L64.71 9.37Q64.76 9.32 64.79 9.25L64.79 9.25L64.79 9.25Q64.81 9.18 64.81 9.11L64.81 9.11L64.81 9.11Q64.83 8.93 64.78 8.69L64.78 8.69L64.78 8.69Q64.72 8.44 64.62 8.29L64.62 8.29L64.62 8.29Q64.36 7.84 63.91 7.76L63.91 7.76L63.91 7.76Q63.46 7.67 63.01 7.86L63.01 7.86L63.01 7.86Q62.55 8.05 62.20 8.46L62.20 8.46L62.20 8.46Q61.85 8.86 61.80 9.41L61.80 9.41L61.80 9.41Q61.87 9.49 61.98 9.52L61.98 9.52L61.98 9.52Q62.01 9.53 62.20 9.53L62.20 9.53L62.20 9.53Q62.40 9.52 62.69 9.51L62.69 9.51L62.69 9.51Q62.97 9.49 63.31 9.47L63.31 9.47L63.31 9.47Q63.64 9.45 63.94 9.44L63.94 9.44L63.94 9.44Q64.23 9.42 64.45 9.40L64.45 9.40L64.45 9.40Q64.67 9.38 64.71 9.37ZM71.41 10.05L71.41 10.05L71.41 10.05Q71.65 10.22 71.70 10.38L71.70 10.38L71.70 10.38Q71.75 10.54 71.81 10.81L71.81 10.81L71.81 10.81Q71.89 11.23 71.77 11.56L71.77 11.56L71.77 11.56Q71.65 11.89 71.39 12.12L71.39 12.12L71.39 12.12Q71.12 12.36 70.76 12.53L70.76 12.53L70.76 12.53Q70.39 12.70 70.00 12.79L70.00 12.79L70.00 12.79Q69.61 12.88 69.22 12.92L69.22 12.92L69.22 12.92Q68.82 12.96 68.52 12.95L68.52 12.95L68.52 12.95Q68.03 12.92 67.59 12.76L67.59 12.76L67.59 12.76Q67.16 12.60 66.74 12.36L66.74 12.36L66.74 12.36Q66.78 12.24 66.81 12.07L66.81 12.07L66.81 12.07Q66.84 11.90 66.88 11.72L66.88 11.72L66.88 11.72Q66.92 11.55 66.99 11.40L66.99 11.40L66.99 11.40Q67.06 11.24 67.17 11.13L67.17 11.13L67.38 11.30L67.38 11.30Q67.48 11.40 67.63 11.51L67.63 11.51L67.63 11.51Q67.79 11.62 67.96 11.71L67.96 11.71L67.96 11.71Q68.14 11.80 68.31 11.86L68.31 11.86L68.31 11.86Q68.49 11.91 68.63 11.91L68.63 11.91L68.63 11.91Q69.51 11.94 70.02 11.71L70.02 11.71L70.02 11.71Q70.53 11.48 70.52 11.10L70.52 11.10L70.52 11.10Q70.52 10.93 70.35 10.82L70.35 10.82L70.35 10.82Q70.18 10.71 70.07 10.65L70.07 10.65L70.07 10.65Q69.69 10.49 69.20 10.40L69.20 10.40L69.20 10.40Q68.70 10.32 68.26 10.16L68.26 10.16L68.26 10.16Q67.83 10.01 67.53 9.70L67.53 9.70L67.53 9.70Q67.23 9.39 67.23 8.76L67.23 8.76L67.23 8.76Q67.23 8.36 67.44 8.03L67.44 8.03L67.44 8.03Q67.65 7.70 67.99 7.45L67.99 7.45L67.99 7.45Q68.33 7.20 68.77 7.03L68.77 7.03L68.77 7.03Q69.20 6.86 69.65 6.77L69.65 6.77L69.65 6.77Q70.10 6.68 70.52 6.69L70.52 6.69L70.52 6.69Q70.94 6.69 71.26 6.79L71.26 6.79L71.26 6.79Q71.33 6.82 71.46 6.86L71.46 6.86L71.46 6.86Q71.58 6.90 71.65 6.94L71.65 6.94L71.65 6.94Q71.71 7.10 71.64 7.20L71.64 7.20L71.64 7.20Q71.57 7.31 71.54 7.46L71.54 7.46L71.54 7.46Q71.51 7.49 71.50 7.56L71.50 7.56L71.50 7.56Q71.48 7.63 71.47 7.71L71.47 7.71L71.47 7.71Q71.46 7.78 71.45 7.85L71.45 7.85L71.45 7.85Q71.44 7.92 71.41 7.92L71.41 7.92L71.41 7.92Q71.27 7.94 71.13 7.91L71.13 7.91L71.13 7.91Q70.98 7.88 70.83 7.87L70.83 7.87L70.83 7.87Q70.52 7.84 70.17 7.85L70.17 7.85L70.17 7.85Q69.82 7.85 69.49 7.94L69.49 7.94L69.49 7.94Q69.16 8.02 68.88 8.20L68.88 8.20L68.88 8.20Q68.60 8.39 68.45 8.71L68.45 8.71L68.43 8.74L68.43 8.74Q68.45 8.88 68.54 9.00L68.54 9.00L68.54 9.00Q68.63 9.11 68.76 9.20L68.76 9.20L68.76 9.20Q68.89 9.28 69.03 9.34L69.03 9.34L69.03 9.34Q69.17 9.39 69.30 9.41L69.30 9.41L69.30 9.41Q69.62 9.45 69.94 9.51L69.94 9.51L69.94 9.51Q70.27 9.58 70.55 9.67L70.55 9.67L70.55 9.67Q70.84 9.76 71.06 9.86L71.06 9.86L71.06 9.86Q71.29 9.95 71.41 10.05ZM76.83 8.05L76.83 8.05L76.83 8.05Q76.68 8.09 76.13 8.11L76.13 8.11L76.13 8.11Q75.57 8.13 74.90 8.15L74.90 8.15L74.90 8.15Q74.89 8.72 74.88 9.28L74.88 9.28L74.88 9.28Q74.87 9.84 74.84 10.47L74.84 10.47L74.84 10.47Q74.83 10.85 74.98 11.09L74.98 11.09L74.98 11.09Q75.12 11.33 75.47 11.52L75.47 11.52L75.47 11.52Q75.63 11.61 75.89 11.63L75.89 11.63L75.89 11.63Q76.15 11.66 76.34 11.45L76.34 11.45L76.34 11.45Q76.52 11.35 76.69 11.38L76.69 11.38L76.69 11.38Q76.85 11.41 76.97 11.51L76.97 11.51L76.97 11.51Q77.10 11.61 77.17 11.72L77.17 11.72L77.17 11.72Q77.25 11.83 77.27 11.90L77.27 11.90L77.27 11.90Q77.10 12.24 76.94 12.41L76.94 12.41L76.94 12.41Q76.79 12.59 76.62 12.66L76.62 12.66L76.62 12.66Q76.45 12.74 76.25 12.75L76.25 12.75L76.25 12.75Q76.05 12.75 75.78 12.75L75.78 12.75L75.78 12.75Q75.40 12.74 75.16 12.68L75.16 12.68L75.16 12.68Q74.91 12.61 74.63 12.39L74.63 12.39L74.63 12.39Q74.17 12.01 73.96 11.67L73.96 11.67L73.96 11.67Q73.75 11.33 73.67 10.96L73.67 10.96L73.67 10.96Q73.60 10.58 73.62 10.15L73.62 10.15L73.62 10.15Q73.64 9.72 73.67 9.17L73.67 9.17L73.67 9.17Q73.68 8.93 73.69 8.68L73.69 8.68L73.69 8.68Q73.70 8.43 73.70 8.16L73.70 8.16L73.70 8.16Q73.37 8.18 73.11 8.18L73.11 8.18L73.11 8.18Q72.86 8.18 72.73 8.18L72.73 8.18L72.73 8.18Q72.58 8.02 72.56 7.77L72.56 7.77L72.56 7.77Q72.55 7.52 72.58 7.15L72.58 7.15L72.58 7.15Q72.65 7.06 73.00 7.01L73.00 7.01L73.00 7.01Q73.36 6.97 73.74 6.97L73.74 6.97L73.74 6.97Q73.75 6.73 73.76 6.50L73.76 6.50L73.76 6.50Q73.77 6.26 73.78 6.03L73.78 6.03L73.78 6.03Q73.79 5.66 73.79 5.23L73.79 5.23L73.79 5.23Q73.79 4.80 73.91 4.44L73.91 4.44L73.91 4.44Q74.02 4.41 74.16 4.37L74.16 4.37L74.16 4.37Q74.30 4.33 74.44 4.30L74.44 4.30L74.44 4.30Q74.52 4.27 74.74 4.29L74.74 4.29L74.74 4.29Q74.96 4.31 75.04 4.31L75.04 4.31L75.04 4.31Q75.04 4.38 75.05 4.60L75.05 4.60L75.05 4.60Q75.07 4.82 75.05 4.94L75.05 4.94L75.05 4.94Q75.03 5.26 75.02 5.54L75.02 5.54L75.02 5.54Q75.01 5.82 74.98 6.19L74.98 6.19L74.98 6.19Q74.97 6.38 74.96 6.57L74.96 6.57L74.96 6.57Q74.96 6.76 74.94 6.96L74.94 6.96L74.94 6.96Q75.39 6.93 75.91 6.93L75.91 6.93L75.91 6.93Q76.43 6.93 76.79 6.99L76.79 6.99L76.79 6.99Q76.85 7.04 76.87 7.21L76.87 7.21L76.87 7.21Q76.89 7.38 76.89 7.56L76.89 7.56L76.89 7.56Q76.89 7.74 76.87 7.89L76.87 7.89L76.87 7.89Q76.85 8.04 76.83 8.05Z"></path></g><linearGradient data-v-d3f97b9e="" gradientTransform="rotate(25)" id="73842783-e9f3-4156-a8ca-b759430d54d8" x1="0%" y1="0%" x2="100%" y2="0%"><stop data-v-d3f97b9e="" offset="0%" style="stop-color: rgb(169, 37, 128); stop-opacity: 1;"></stop><stop data-v-d3f97b9e="" offset="100%" style="stop-color: rgb(247, 188, 0); stop-opacity: 1;"></stop></linearGradient><g data-v-d3f97b9e="" id="d92531db-fafa-41c5-a5c7-2a9d74be562c" transform="matrix(1.0873767936355097,0,0,1.0873767936355097,0.631127134118266,-8.75283813598007)" stroke="none" fill="url(#73842783-e9f3-4156-a8ca-b759430d54d8)"><path d="M92.703 32.266c-.758-8.932-8.271-15.97-17.396-15.97-9.029 0-16.48 6.89-17.371 15.688H47.827a9.54 9.54 0 0 0-4.842 1.322c.781-10.054 6.124-18.82 13.958-24.261-1.854-.251-3.733-.429-5.657-.429C28.433 8.616 9.905 27.145 9.905 50c0 .727.024 1.448.063 2.165C4.33 53.041 0 57.928 0 63.808c0 6.498 5.286 11.784 11.783 11.784h6.995c7.577 9.614 19.318 15.792 32.509 15.792 17.486 0 32.404-10.861 38.466-26.187-4.306 2.094-9.126 3.299-14.236 3.299A32.495 32.495 0 0 1 62 65.566a13.666 13.666 0 0 0 2.982-6.741h18.357c4.723 0 8.661-3.423 9.465-7.918C96.958 49.829 100 46.043 100 41.6a9.573 9.573 0 0 0-7.297-9.334zM4.198 63.808c0-4.183 3.403-7.585 7.586-7.585h6.415l-.208-2.288c-.039-.43-.058-.829-.058-1.218 0-7.388 6.01-13.397 13.397-13.397 2.477 0 4.85.695 6.899 1.932-.004.117-.018.232-.018.351 0 5.302 4.314 9.615 9.616 9.615h6.097a9.645 9.645 0 0 0 6.854 7.264c-.773 4.48-4.677 7.902-9.375 7.902h-9.835l-.599 1.085a7.59 7.59 0 0 1-6.644 3.927H11.783c-4.182-.002-7.585-3.404-7.585-7.588zm86.525-16.801l-2.027.173.059 2.031a5.423 5.423 0 0 1-5.417 5.417h-20.01c-2.987 0-5.417-2.43-5.416-5.411l.036-2.198h-10.12a5.425 5.425 0 0 1-5.418-5.417 5.425 5.425 0 0 1 5.418-5.418h14.266l-.049-2.426c0-7.313 5.949-13.262 13.262-13.262s13.261 5.949 13.261 13.262l-.055 2.359 2.071.074a5.394 5.394 0 0 1 5.219 5.411 5.423 5.423 0 0 1-5.08 5.405z"></path></g><!----></svg>