<?xml version="1.0"?>
<!-- Generated by SVGo -->
<svg width="1200" height="1600"
     xmlns="http://www.w3.org/2000/svg"
     xmlns:xlink="http://www.w3.org/1999/xlink">
<style type="text/css">
<![CDATA[

 * {
    --hat-base: #3DADEA;
    --hat-accent: #6EFFF8;
    --medallion-base: #6EFFF8;
    --collar-base: #3DADEA;
    --cape-base: #FFFFFF;
    --pants-base: #BFCBD1;
    --boot-accent: #6EFFF8;
    --boot-base: #FFFFFF;
    --hands-base: #FFFFFF;
    --hands-accent: #3DADEA;
    --wand-accent: #6EFFF8;
}
 
 /*  L02 Legs/Pants  */
#legs #base {
    fill: var(--pants-base);
}

/* L03 Boots */
#left_boot #base, #right_boot #base-2 {
    fill: var(--boot-base);
}

#left_boot #accent, #right_boot #accent-2 {
    fill: var(--boot-accent);
}

/*  L04 Hat */
#hat01 #base,
#hat02 #base,
#hat03 #base,
#hat04 #base,
#hat05 #base,
#hat06 #base,
#hat07 #base,
#hat07 #base-2,
#hat08 #base,
#hat09 #base,
#hat10 #base,
#hat11 #base,
#hat12 #base,
#hat13 #base,
#hat14 #base,
#hat14 #basic,
#hat15 #base,
#hat16 #base {
    fill: var(--hat-base);
}

#hat01 #accent,
#hat02 #accent,
#hat03 #accent,
#hat04 #accent,
#hat05 #accent,
#hat05 #accent-2,
#hat05 #accent-3,
#hat05 #accent-4,
#hat06 #accent,
#hat07 #accent,
#hat07 #accent-2,
#hat08 #accent,
#hat09 #accent,
#hat10 #accent,
#hat11 #accent,
#hat12 #accent,
#hat13 #accent,
#hat14 #accent,
#hat15 #accent,
#hat16 #accent,
#hat16 #accent-2,
#hat16 #accent-3 {
    fill: var(--hat-accent);
}

/*L07 - Cape */
#medallion {
    fill: var(--medallion-base);
}

#collar {
    fill: var(--collar-base);
}

#cape {
    fill: var(--cape-base);
}

/* L08 Hands */

#down_righthand #base, #bottom_part #base, #top_part #base {
    fill: var(--hands-base);
}

#down_righthand #accent, #bottom_part #accent {
    fill: var(--hands-accent);
}

/* L09 Wands */

#wand01 #accent,
#wand02 #accent,
#wand03 #accent,
#wand04 #accent,
#wand04 #accent-2,
#wand05 #accent,
#wand05 #accent-2,
#wand05 #accent-3,
#wand06 #accent,
#wand06 #accent-2
{
    fill: var(--wand-accent);
}
]]>
</style>
<g clip-path="url(#backneck-clippath)" id="backneck" >
<clipPath id="backneck-clippath" ><rect x="0" y="0" width="1200" height="1600" />
</clipPath>
<title>backneck01</title><g id="BACK_BLACK"><path id="back_neck" data-name="back neck" d="M628.3,648.2s53.5-75.7,70.3-85.9c0,0-2.1-8.2-85.9-8.2h-.1c-83.9,0-86,8.2-86,8.2,16.8,10.2,70.4,85.9,70.4,85.9Z" stroke="#000" stroke-linejoin="round" stroke-width="1.7"/></g></g>
<g clip-path="url(#backcape-clippath)" id="backcape" >
<clipPath id="backcape-clippath" ><rect x="0" y="0" width="1200" height="1600" />
</clipPath>
<title>backcape02</title><g id="BACK_BLACK"><g id="capes"><g id="_02_water_back_cape" data-name="02 water back cape"><path d="M607.3,1032.1h54l132.9-69.2,4.2,8.9s-50.5,159.1-98.4,171.9c-32.3,8.6-49.6,23.7-70.3,47.8l-22.4-59.9-22.5,59.9c-20.6-24.1-41.3-28.4-70.2-47.8C473.4,1116.1,412.1,967,412.1,967l9.4-10.7,131.8,68.4,52.6,7.6Z" stroke="#000" stroke-linejoin="round" stroke-width="1.7"/></g></g></g></g>
<g clip-path="url(#legs-clippath)" id="legs" >
<clipPath id="legs-clippath" ><rect x="0" y="0" width="1200" height="1600" />
</clipPath>
<title>legs01</title><polygon id="base" points="627.9 1265.5 689.9 1265.5 715.9 810.8 714.5 720.7 515.1 720.7 514.5 812.2 535.3 1265.5 597.4 1265.5 620.7 884.2 627.9 1265.5" fill="gray"/><path d="M656.9,874s-12.1,9.8-35.9,9.8h.1" fill="none" stroke="#000" stroke-linejoin="round"/><polygon points="627.9 1265.5 689.9 1265.5 715.9 810.8 714.5 720.7 515.1 720.7 514.5 812.2 535.3 1265.5 597.4 1265.5 620.7 884.2 627.9 1265.5" fill="none" stroke="#000" stroke-linejoin="round"/></g>
<g clip-path="url(#boots-clippath)" id="boots" >
<clipPath id="boots-clippath" ><rect x="0" y="0" width="1200" height="1600" />
</clipPath>

    <title>boots01</title>
    <g id="left_boot" data-name="left boot">
        <polygon id="base" points="615.5 1266.8 620.6 1402 723 1402 732.8 1402 698.5 1374.3 698.2 1259.8 615.5 1266.8"
                 fill="gray"/>
        <polygon id="line" points="615.5 1266.8 620.6 1402 723 1402 732.8 1402 698.5 1374.3 698.2 1259.8 615.5 1266.8"
                 fill="none" stroke="#000" stroke-linejoin="round"/>
        <polygon points="698.2 1295.7 617.2 1295.7 615.9 1262.2 698.2 1259.8 698.2 1295.7" stroke="#000"
                 stroke-linejoin="round"/>
        <path id="accent"
              d="M616.4,1250.8l82,.6a14.6,14.6,0,0,1,14.4,14.5v17.8l-19.6.3-9.3-21.1-11.3,21.5-70.5,1.2-.3-20.1A14.5,14.5,0,0,1,616.4,1250.8Z"
              fill="#ccc"/>
        <path id="line-2" data-name="line"
              d="M616.4,1250.8l82,.6a14.6,14.6,0,0,1,14.4,14.5v17.8l-19.6.3-9.3-21.1-11.3,21.5-70.5,1.2-.3-20.1A14.5,14.5,0,0,1,616.4,1250.8Z"
              fill="none" stroke="#000" stroke-linejoin="round"/>
    </g>
    <g id="right_boot" data-name="right boot">
        <polygon id="base-2" data-name="base"
                 points="524.8 1266.8 529.9 1402 635.7 1402 645.5 1402 607.8 1374.3 607.5 1259.8 524.8 1266.8"
                 fill="gray"/>
        <polygon id="line-3" data-name="line"
                 points="524.8 1266.8 529.9 1402 635.7 1402 645.5 1402 607.8 1374.3 607.5 1259.8 524.8 1266.8"
                 fill="none" stroke="#000" stroke-linejoin="round"/>
        <polygon points="607.5 1295.7 526.5 1295.7 525.2 1262.2 607.5 1259.8 607.5 1295.7" stroke="#000"
                 stroke-linejoin="round"/>
        <path id="accent-2" data-name="accent"
              d="M525.7,1250.8l81.9.6a14.6,14.6,0,0,1,14.5,14.5v17.8l-19.6.3-9.3-21.1-11.3,21.5-70.6,1.2-.2-20.1A14.5,14.5,0,0,1,525.7,1250.8Z"
              fill="#ccc"/>
        <path d="M525.7,1250.8l81.9.6a14.6,14.6,0,0,1,14.5,14.5v17.8l-19.6.3-9.3-21.1-11.3,21.5-70.6,1.2-.2-20.1A14.5,14.5,0,0,1,525.7,1250.8Z"
              fill="none" stroke="#000" stroke-linejoin="round"/>
    </g>
</g>
<g clip-path="url(#hat-clippath)" id="hat" >
<clipPath id="hat-clippath" ><rect x="0" y="0" width="1200" height="1600" />
</clipPath>
<title>hat06</title><g id="hat06"><path id="base" d="M658.4,345.7a260.3,260.3,0,0,1-17.1-24.1,24.2,24.2,0,0,1-6.3,1.6c-12,1.5-22.8-4.6-24.1-13.7-.9-7,4.1-13.7,12-17.1-15.9-25.3-31.5-51-33.3-56.6a22.1,22.1,0,0,1-.9-5h.2c11,5.1,21.1-1.5,23.2-8.4s1.3-21.1-13.8-23.5c-10.8-1.7-16.5,3.4-18.9,6.5a9.1,9.1,0,0,0-1.9,3.8c-1.7,5.9-7.7,27.6-14.6,52.9l1.5.6c14.7,5.4,22.8,19.1,18.1,30.6s-18,15.7-31.6,12.2c-8.2,29.8-15.6,53.3-15.9,54.6l2-.9c25.9-10.5,89.1-16.9,118.7-14Z" fill="#999"/><path id="line" d="M658.4,345.7a260.3,260.3,0,0,1-17.1-24.1,24.2,24.2,0,0,1-6.3,1.6c-12,1.5-22.8-4.6-24.1-13.7-.9-7,4.1-13.7,12-17.1-15.9-25.3-31.5-51-33.3-56.6a22.1,22.1,0,0,1-.9-5h.2c11,5.1,21.1-1.5,23.2-8.4s1.3-21.1-13.8-23.5c-10.8-1.7-16.5,3.4-18.9,6.5a9.1,9.1,0,0,0-1.9,3.8c-1.7,5.9-7.7,27.6-14.6,52.9l1.5.6c14.7,5.4,22.8,19.1,18.1,30.6s-18,15.7-31.6,12.2c-8.2,29.8-15.6,53.3-15.9,54.6l2-.9c26-10.5,87.3-17,118.7-14Z" fill="none" stroke="#000" stroke-linecap="round" stroke-linejoin="round"/><path id="hat06_back" data-name="hat06 back" d="M658.8,346.6c.5,4-26.9,9-61.1,12.9s-62.3,5.2-62.8,1.1,26.8-10.5,61-14.4S658.3,342.5,658.8,346.6Z" stroke="#000" stroke-linejoin="round"/></g></g>
<g clip-path="url(#face-clippath)" id="face" >
<clipPath id="face-clippath" ><rect x="0" y="0" width="1200" height="1600" />
</clipPath>
<title>head03</title><g id="_03_Circle" data-name="03 Circle"><path d="M677,394.4l-24.2,4.9a7.6,7.6,0,0,0-5.9,5L608.8,509.4l41.8-2.9Z" fill="#f4aa4a" stroke="#000" stroke-linejoin="round"/><path d="M610,566c-36.8-5.6-62.5-19.1-77.4-35.1a3.2,3.2,0,0,1-.6-2,12.2,12.2,0,0,0-6.4-10.5,5.6,5.6,0,0,1-2.4-2.1c-5.9-11.1-9-23.3-10.3-36.2a165.2,165.2,0,0,1,.1-30.7h.1a10.7,10.7,0,0,0,6.3-15.3,7.7,7.7,0,0,0-1.5-2.2c8.7-24.8,26.5-41.9,47.5-49.8a77.6,77.6,0,0,1,9.7-2.9l24.4-5.8,22.8,193.5Z" fill="#f4aa4a" stroke="#000" stroke-linejoin="round"/><path d="M677,394.4c20.1,17.2,34.4,42.4,37.2,70.4,5.4,54.3-31.6,96.5-76.2,102.4-52.7,7-91.2-35.5-97.9-87.2-6.5-49.7,21.1-96.5,59.4-106.6a2.4,2.4,0,0,1,2.8,1.6l38.2,122.7Z" fill="#ffef57" stroke="#000" stroke-linejoin="round"/><path d="M655.2,436.1a23.1,23.1,0,0,0,2.1,11.8s7.6-7.3,8.9-12.4-.6-11.5-.6-11.5S655.7,429.4,655.2,436.1Z" fill="#e0913b" stroke="#000" stroke-linejoin="round"/></g></g>
<g clip-path="url(#expression-clippath)" id="expression" >
<clipPath id="expression-clippath" ><rect x="0" y="0" width="1200" height="1600" />
</clipPath>
<title>head03exp02</title><g id="_03_circle" data-name="03 circle"><g id="_03_circle_exp02" data-name="03 circle exp02"><path d="M583.1,479.4a73.3,73.3,0,0,0-9.8.7V460.7c0-5.2,4.2,1.7,9.4,1.7s9.4,1.4,9.4,3.9v15.6C592.4,483,588.3,479.4,583.1,479.4Z"/><path d="M691.2,478.3a18.2,18.2,0,0,0-5.5,1.9l-1.2-12.1a6.6,6.6,0,1,1,13.2-1.2l1.2,11.8c.3.4-2.8-.8-6.5-.5Z"/><path d="M671.9,510.9c-30,17.2-51.8-1.8-51.8-1.8s-8.6-7.6-13.9-6.1c-6.8,1.9-12.5,18.3-13.4,30.1s9.6,15.2,17.5,11.6,20.4-22,45.4-6.1Z" fill="#fff"/><path d="M604.1,546.8a12.2,12.2,0,0,1-7.4-2.2c-3.5-2.4-5.1-6.5-4.7-11.6,1-11.2,6.5-28.7,14-30.8,5.6-1.5,14.2,6,14.6,6.3s21.8,18.5,50.9,1.8a.7.7,0,0,1,1,1l-16.2,27.6a1,1,0,0,1-.5.4h-.5c-19.4-12.3-30.7-3.8-39,2.4a35.1,35.1,0,0,1-5.7,3.8A16.5,16.5,0,0,1,604.1,546.8Zm3.6-43.3-1.3.2c-6,1.7-11.9,17.2-12.9,29.5-.5,5.7,1.9,8.7,4,10.2s8.2,2.6,12.5.6a35.9,35.9,0,0,0,5.4-3.6c8-6.1,20.1-15.2,40-2.9l14.5-24.6c-14.7,7.6-27.3,6.6-35.4,4.3a40.3,40.3,0,0,1-14.9-7.6C619.5,509.6,612.6,503.5,607.7,503.5Z"/><path d="M629.5,546.7a1.1,1.1,0,0,1-.7-.3.9.9,0,0,1,.2-1.2c6.4-5,13.6-5.5,16.5-5a.9.9,0,1,1-.3,1.7c-2.6-.4-9.2,0-15.2,4.6Z"/><path d="M593.5,471.8l-1.2-.2-24.2-9.4a3.3,3.3,0,0,1-1.9-4.3,3.4,3.4,0,0,1,4.3-1.9l24.2,9.4a3.3,3.3,0,0,1,1.9,4.3A3.3,3.3,0,0,1,593.5,471.8Z"/><path d="M680,474.2a3.1,3.1,0,0,1-2.7-1.3,3.2,3.2,0,0,1,.7-4.6l18.1-13.5a3.4,3.4,0,0,1,4.7.7,3.4,3.4,0,0,1-.7,4.6l-18.2,13.5A3.5,3.5,0,0,1,680,474.2Z"/><path d="M595.3,485.2l-.6-.2c0-.1-2.4-2.3-7-3.7s-11.5-2.1-21.2,1.6a.8.8,0,0,1-1.1-.5,1,1,0,0,1,.5-1.1c19.7-7.4,29.6,2.1,30,2.5a.9.9,0,0,1,0,1.2Z"/><path d="M677.8,488.1l-.5-.2a.7.7,0,0,1-.2-1.1c.1-.2,9.9-15.2,26.7-7.2a.9.9,0,1,1-.8,1.6c-6.5-3.1-12.5-3-18.1.4a21.8,21.8,0,0,0-6.4,6.1A1,1,0,0,1,677.8,488.1Z"/><path d="M667.9,513.7a.6.6,0,0,1-.6-.4.7.7,0,0,1,.3-1,43.6,43.6,0,0,0,6.1-3.5,17.5,17.5,0,0,1-9.4-5.6.7.7,0,0,1,.2-1,.7.7,0,0,1,1,.1,16.6,16.6,0,0,0,9.4,5.2c.7.2.8.7.8.8s.3,1.5-7.4,5.4Zm6.7-4.7Z"/><path d="M659.5,542.4a.9.9,0,0,1-.6-.3c0-.1-1.5-1.7-7.6-5.2a.7.7,0,1,1,.7-1.3c6.5,3.7,8,5.5,8.1,5.5a.8.8,0,0,1-.1,1.1Z"/><path d="M601.7,546.6h0a.9.9,0,0,1-.8-.8c.7-18.9,14.8-38.9,14.9-39.1a.7.7,0,0,1,1.1-.2.7.7,0,0,1,.1,1c-.1.2-13.9,19.9-14.6,38.4A.7.7,0,0,1,601.7,546.6Z"/><path d="M618.6,539h-.2a.7.7,0,0,1-.5-.9c4.4-16,10.8-23.5,11-23.8a.9.9,0,0,1,1.1-.1.8.8,0,0,1,.1,1.1c-.1.1-6.4,7.5-10.8,23.2A.7.7,0,0,1,618.6,539Z"/><path d="M637,532.2h-.3a.6.6,0,0,1-.4-.9c3.8-9.5,6.4-12.8,6.5-13a.8.8,0,0,1,1.1-.1.8.8,0,0,1,.1,1.1s-2.6,3.3-6.3,12.5C637.5,532,637.3,532.2,637,532.2Z"/><path d="M648.4,534.5h-.3a.7.7,0,0,1-.4-1,82.9,82.9,0,0,1,9.5-17,.8.8,0,0,1,1-.2.9.9,0,0,1,.2,1.1,79.2,79.2,0,0,0-9.3,16.6A.8.8,0,0,1,648.4,534.5Z"/></g></g></g>
<g clip-path="url(#cape-clippath)" id="cape" >
<clipPath id="cape-clippath" ><rect x="0" y="0" width="1200" height="1600" />
</clipPath>
<title>cape02</title><g id="water02"><path id="cape" d="M663.8,615.8c14.7-.6,19.9,5.4,23.8,10.2,22,26.8,80,267.7,110.5,345.6,0,0-19.7,66.3-73.3,118.2-15.6,15.1-29.4,3.1-33.1-16.3h-.1c-.4,25.5-21,35.6-46.8,31.8C481,1081.6,412.1,967,412.1,967c48.9-99.8,90.8-317.1,117.8-338.8a60.4,60.4,0,0,1,40.2-13l46.8.4,24.7,7.1Z" fill="gray"/><path d="M663.8,615.8c14.7-.6,19.9,5.4,23.8,10.2,22,26.8,80,267.7,110.5,345.6,0,0-19.7,66.3-73.3,118.2-15.6,15.1-29.4,3.1-33.1-16.3h-.1c-.4,25.5-21,35.6-46.8,31.8C481,1081.6,412.1,967,412.1,967c48.9-99.8,90.8-317.1,117.8-338.8a60.4,60.4,0,0,1,40.2-13l45.1.4,26.9,6.2,10.4-6Z" fill="none" stroke="#000" stroke-linejoin="round"/><path d="M691.7,1073.4c-2-39.8-16.5-323.7-41.6-394.2" fill="none" stroke="#000" stroke-linejoin="round"/><path id="collar" d="M654.8,573.4,642,620.1l-18.5-46.7s-80.1-.9-96.9-11.1l26.3,54.4c7.1.8,48.3-5.9,53.8,38.6,3.5,23.9,13.2,56.6,49.6,52.2,38.5-4.6,5.2-88.2,16.1-90.8l26.2-54.4C681.8,572.5,654.8,573.4,654.8,573.4Z" fill="#ccc"/><path id="line" d="M654.8,573.4,642,620.1l-18.5-46.7s-80.1-.9-96.9-11.1l26.3,54.4c7.1.8,48.3-5.9,53.8,38.6,3.5,23.9,13.2,56.6,49.6,52.2,38.5-4.6,5.2-88.2,16.1-90.8l26.2-54.4C681.8,572.5,654.8,573.4,654.8,573.4Z" fill="none" stroke="#000" stroke-linejoin="round"/><ellipse id="medallion" cx="645.1" cy="640" rx="16" ry="21" transform="translate(-54.4 60) rotate(-5.1)" fill="gray"/><ellipse id="line-2" data-name="line" cx="645.1" cy="640" rx="16" ry="21" transform="translate(-54.4 60) rotate(-5.1)" fill="none" stroke="#000" stroke-linejoin="round"/></g></g>
<g clip-path="url(#left-hand-back-clippath)" id="left-hand-back" >
<clipPath id="left-hand-back-clippath" ><rect x="0" y="0" width="1200" height="1600" />
</clipPath>
<title>Lhandback-01</title><g id="uiux"><g id="down_lefthand"><g id="bottom_part" data-name="bottom part"><path id="base" d="M885.5,876.6s5.3,2.7,9.6,2,9-5.8,9.4-11-2-10.2-5.8-13.8a32,32,0,0,0-13.6-7.2c-1.7-.5-2.7-1-4.4-1.4l-.5.4,1.5-4.3c2.5-7.6-6.3-17-6.3-17-8-6.8-41.6-6.7-41.6-6.7s-20.2,6-31.7,43.3a12.4,12.4,0,0,0,2.5,10c6,7.8,17.2,20,32.1,22.6.4.1.4.4.7.3s1.1,1.5,1.2,2.1c1.4,4.6,6.1,7.1,9.8,10.7a26.6,26.6,0,0,0,15.8,7.1c1.9.1,4.6-.8,6.3-1.4,4.9-1.6,7-9,5.5-14l-.2-1.2a12.3,12.3,0,0,0,5.7.4c3.4-.8,4.2-.4,5.7-3.5A17.3,17.3,0,0,0,885.5,876.6Zm-34.8.8" fill="#fff"/><path id="accent" d="M835.5,818.4c-4.4-4.8-14.1-10-14.1-10-6,.4-23.9,10.6-30,28.8s-4.2,37,1.2,38.2c0,0,16.4,5.3,18,5.3,0,0-.1-.2,1.1-1.6l-2.3-2.4c-4.3-3.5-9.1-13.9-2.1-30.8s20.3-28.5,26.2-28.4Z" fill="#ccc"/><g id="outline"><path d="M837,893.2c-10.9-.6-19.5-7.9-26.3-15.1,0,0-12-10.1-3.4-32.2,6.2-16.2,21.1-28.1,27-28" fill="none" stroke="#000" stroke-linecap="round" stroke-linejoin="round"/><path d="M836.1,818c-4.4-4.8-14.7-9.6-14.7-9.6-6,.4-23.9,10.6-30,28.8s-4.2,37,1.2,38.2c0,0,17.7,4.8,19.3,4.8" fill="none" stroke="#000" stroke-linecap="round" stroke-linejoin="round"/></g></g></g></g></g>
<g clip-path="url(#wand-clippath)" id="wand" >
<clipPath id="wand-clippath" ><rect x="0" y="0" width="1200" height="1600" />
</clipPath>
<title>Lhand01-wand03</title><g id="uiux"><g id="down_lefthand"><g id="wand03"><path id="base" d="M820.6,919.8a12.7,12.7,0,0,0,6.9,2.9l12.6-3.8L952,746.1l48.6-74s1.8-2.8.7-4.6h-.4c-2.1-.5-4.1,2.2-4.1,2.2l-54.4,69.8L815,900.9l.4,13.2a14,14,0,0,0,5,5.6Z" fill="#96543c"/><path id="accent" d="M827.5,922.7l-1.4-.2A17.6,17.6,0,0,1,816,915l-.6-.9S804,922.8,798.9,929l-1.1,14.2.4.4a21.5,21.5,0,0,0,6.9,5l.5.2,13.1-5.6C823,936.3,827.5,922.7,827.5,922.7Z" fill="#ccc"/><path d="M827.5,922.7s-4.5,13.6-8.8,20.5l-13.1,5.6h0l-.5-.2a21.5,21.5,0,0,1-6.9-5l-.4-.4,1.1-14.2c5.1-6.2,16.5-14.9,16.5-14.9" fill="none" stroke="#000" stroke-linecap="round" stroke-linejoin="round"/><path d="M799.2,929.1a29.8,29.8,0,0,0,7.8,9.3h.2a29.3,29.3,0,0,0,11.3,4.4l.2.3-13.1,5.6h0l-.5-.2a21.5,21.5,0,0,1-6.9-5l-.4-.4,1.1-14.2" fill="none" stroke="#000" stroke-linecap="round" stroke-linejoin="round"/><path d="M820.6,919.8a12.7,12.7,0,0,0,6.9,2.9l12.6-3.8L952,746.1l48.6-74s1.8-2.8.7-4.6h-.4c-2.1-.5-4.1,2.2-4.1,2.2l-54.4,69.8L815,900.9l.4,13.2a14,14,0,0,0,5,5.6Z" fill="none" stroke="#000" stroke-linecap="round" stroke-linejoin="round"/></g></g></g></g>
<g clip-path="url(#left-hand-front-clippath)" id="left-hand-front" >
<clipPath id="left-hand-front-clippath" ><rect x="0" y="0" width="1200" height="1600" />
</clipPath>
<title>Lhand01</title><g id="uiux"><g id="down_lefthand"><g id="top_part" data-name="top part"><path id="base" d="M821.3,829a24,24,0,0,0,4.8,17c6.3,7.8,19.7,7.6,29.2,5.4l-3,10.7s-.1,4.2,1.6,6.9c0,0-5.1.5-4.8,8.9v.5s-5.1-3.2-9.5,4-3.5,11.6.3,15.9,13.1,11.9,13.1,11.9a23.2,23.2,0,0,0,11.1,3.4c6.8.4,14.5-5.4,12-16.9,0,0,9.7,2.7,12.9-4.4s-3.4-15.8-3.4-15.8,13.4,6.9,18-4.9c0,0,4.5-10.9-6.9-19.8a46.1,46.1,0,0,0-16.3-6.7s8.2-16.7-12-24.7a198.6,198.6,0,0,0-32.4-2.3l-3.6,1.4c-5.2,1.5-7.2,4.8-9.7,7.7Z" fill="#fff"/><g id="outline"><path d="M834.4,818c4.8,0,23.9.4,34.7,2.8,3,.6,8.3,4.3,9.9,7.2s4.1,9,2.7,13.3c0,0-4.9,12.9-9.7,22.2,0,0-6.9,17.8-15.8,8.4-3-3.2-4.9-7.2-3.3-12l5.1-15.4" fill="none" stroke="#000" stroke-linecap="round" stroke-linejoin="round"/><path d="M880.7,845.2c1.7.4,2.7.9,4.4,1.4a32,32,0,0,1,13.6,7.2c3.8,3.6,6.3,8.7,5.8,13.8s-4.3,10.2-9.4,11-8.7-1.6-12.6-3.8L870.2,868" fill="none" stroke="#000" stroke-linecap="round" stroke-linejoin="round"/><path d="M853.8,868.9a4.6,4.6,0,0,0-3.3,2.7c-5.9,10,6,15.1,6,15.1l12.3,6.8c3.9,2.2,8.2,4.5,12.6,3.7s7.7-3.6,8.1-8.7-1.3-8.6-3.8-11.9" fill="none" stroke="#000" stroke-linecap="round" stroke-linejoin="round"/><path d="M876,897.3c.5,2.5.8,5.6,0,8-1.7,5-6.6,8.8-11.8,8.4s-9.9-1.8-13.2-4.9l-10.3-9.5s-8.9-8.6-.4-17.9c0,0,3.2-5.2,8.8-2.9" fill="none" stroke="#000" stroke-linecap="round" stroke-linejoin="round"/><path d="M855.7,851.4s-29.6,7.2-33.6-13.9" fill="none" stroke="#000" stroke-linecap="round" stroke-linejoin="round"/></g></g></g></g></g>
<g clip-path="url(#right-hand-clippath)" id="right-hand" >
<clipPath id="right-hand-clippath" ><rect x="0" y="0" width="1200" height="1600" />
</clipPath>
<title>Rhand01</title><g id="uiux"><g id="down_righthand"><path id="accent" d="M414.6,906.8c-3.3-7.1-5.4-27.1-5.4-27.1,3.3-5.5,30.5-13.1,54.2-8s37.3,21.5,36,27.4c0,0-12,15.4-14.2,16.6" fill="#ccc"/><path id="base" d="M450.4,893.7c10.2,1.9,21.2,6.3,32.1,18.2l.8,1c2,2.2,5.5,10,5.9,12.1s1.3,4.3,2.1,6.8l3.2,14,4.7,15.4-1.8,5a15.5,15.5,0,0,1-6.6,7.8c-2.3,1-3.5.6-6.8.7-1,3.5-3.8,6-6.5,9.1s-6.9,2.9-8.3,2.6c-3.1-.6-8.3-.6-11.8-9.6-2,10-9.3,12.5-11.7,12.5-5.6.1-10-1.3-11.6-3.1s-3.2-7.6-3.5-11.8l-1.2,2.4a9.3,9.3,0,0,1-3.3,4.5l-2.3,1.2c-3.2-.9-5.2-2.2-8.5-4.2s-7-13.5-7.6-17.8c-2.3-18.7.9-37.3,5.2-48.1,0,0,1.7-7.8,10.4-14C426.4,896.2,441.2,892.1,450.4,893.7Z" fill="#fff"/><g id="outline"><path d="M414.6,906.8c-3.3-7.1-5.4-27.1-5.4-27.1,3.3-5.5,30.5-13.1,54.2-8s37.3,21.5,36,27.4c0,0-11.5,15.2-13.7,16.4" fill="none" stroke="#000" stroke-linecap="round" stroke-linejoin="round"/><path d="M485.1,915.5a53.7,53.7,0,0,0-34.8-21.8c-9.2-1.6-24.1,2.6-27.2,4.7-8.6,6.2-10.3,14.1-10.3,14.1-4.4,10.7-6.1,24.5-5.6,41.5.3,10.8,3.6,21,8.1,24.3s10.9,8.1,15.4-4" fill="none" stroke="#000" stroke-linecap="round" stroke-linejoin="round"/><path d="M483.6,941.1c3.8,17.9,3.5,33.6-4.5,41.3-3.8,3.6-9.4,5-14.2,2.9-3.1-1.2-6.2-3.9-7.7-9.5" fill="none" stroke="#000" stroke-linecap="round" stroke-linejoin="round"/><path d="M457.2,969.4c1.2,12.6-4.2,17.7-9.5,19.4s-12.3-.8-14-3-4.2-12.9-2.3-18.2" fill="none" stroke="#000" stroke-linecap="round" stroke-linejoin="round"/><path d="M485.4,915.6c6.5,12.7,8,30.8,13.5,43.9.9,2.2-1.1,5.6-2,7.7" fill="none" stroke="#000" stroke-linecap="round" stroke-linejoin="round"/><path d="M484,974.4h3.2c4.2.1,5.9-1.5,8.2-5l1.5-2.1" fill="none" stroke="#000" stroke-linecap="round" stroke-linejoin="round"/></g></g></g></g>
</svg>
