<?xml version="1.0"?>
<!-- Generated by SVGo -->
<svg width="1200" height="1600"
     xmlns="http://www.w3.org/2000/svg"
     xmlns:xlink="http://www.w3.org/1999/xlink">
<style type="text/css">
<![CDATA[

 * {
    --hat-base: #2B2B2B;
    --hat-accent: #84FF61;
    --medallion-base: #84FF61;
    --collar-base: #2B2B2B;
    --cape-base: #2B2B2B;
    --pants-base: #808080;
    --boot-base: #9B4F40;
    --boot-accent: #C17D49;
    --hands-base: #FFFFFF;
    --hands-accent: #2B2B2B;
    --wand-accent: #84FF61;
}
 
 /*  L02 Legs/Pants  */
#legs #base,
#leg02 #base {
    fill: var(--pants-base);
}

/* L03 Boots */
#left_boot #base, #right_boot #base-2 {
    fill: var(--boot-base);
}

#left_boot #accent, #right_boot #accent-2 {
    fill: var(--boot-accent);
}

/*  L04 Hat */
#hat01 #base,
#hat02 #base,
#hat03 #base,
#hat04 #base,
#hat05 #base,
#hat06 #base,
#hat07 #base,
#hat07 #base-2,
#hat08 #base,
#hat09 #base,
#hat10 #base,
#hat11 #base,
#hat12 #base,
#hat13 #base,
#hat14 #base,
#hat14 #basic,
#hat15 #base,
#hat16 #base,
#hat17 #base,
#hat18 #base,
#hat19 #base,
#hat20 #base,
#hat21 #base,
#hat22 #base,
#hat23 #base,
#hat24 #base,
#hat25 #base,
#hat26 #base {
    fill: var(--hat-base);
}

#hat01 #accent,
#hat02 #accent,
#hat03 #accent,
#hat04 #accent,
#hat05 #accent,
#hat05 #accent-2,
#hat05 #accent-3,
#hat05 #accent-4,
#hat06 #accent,
#hat07 #accent,
#hat07 #accent-2,
#hat08 #accent,
#hat09 #accent,
#hat10 #accent,
#hat11 #accent,
#hat12 #accent,
#hat13 #accent,
#hat14 #accent,
#hat15 #accent,
#hat16 #accent,
#hat16 #accent-2,
#hat16 #accent-3,
#hat17 #accent,
#hat18 #accent,
#hat18 #accent-2,
#hat18 #accent-3,
#hat18 #accent,
#hat19 #accent,
#hat20 #accent,
#hat21 #accent,
#hat21 #accent-2,
#hat22 #accent,
#hat22 #accent-2,
#hat22 #accent-3,
#hat23 #accent,
#hat24 #accent,
#hat24 #accent-2,
#hat25 #accent,
#hat26 #accent,
#hat26 #accent-2 {
    fill: var(--hat-accent);
}

/*L07 - Cape */
#medallion, #medallion-2 {
    fill: var(--medallion-base);
}

#collar, #collar-2, #collar-3 {
    fill: var(--collar-base);
}

#collar-accent, #collar-accent-2, #collar-accent-3 {
    fill: var(--collar-accent);
}

#cape {
    fill: var(--cape-base);
}

/* L08 Hands */

#down_righthand #base, #bottom_part #base, #top_part #base {
    fill: var(--hands-base);
}

#down_righthand #accent, #bottom_part #accent {
    fill: var(--hands-accent);
}

/* L09 Wands */

#wand01 #accent,
#wand02 #accent,
#wand03 #accent,
#wand04 #accent,
#wand04 #accent-2,
#wand05 #accent,
#wand05 #accent-2,
#wand05 #accent-3,
#wand06 #accent,
#wand06 #accent-2,
#wand07 #accent,
#wand07 #accent-2,
#wand08 #accent,
#wand08 #accent-2,
#wand09 #accent,
#wand09 #accent-2,
#wand10 #accent,
#wand10 #accent-2,
#wand11 #accent,
#wand11 #accent-2,
#wand11 #accent-3,
#wand12 #accent,
#wand12 #accent-2,
#wand13 #accent,
#wand13 #accent-2,
#wand13 #accent-3,
#wand14 #accent,
#wand14 #accent-2,
#wand14 #accent-3,
#wand14 #accent-4,
#wand15 #accent,
#wand15 #accent-2 {
    fill: var(--wand-accent);
}

]]>
</style>
<g clip-path="url(#backneck-clippath)" id="backneck" >
<clipPath id="backneck-clippath" ><rect x="0" y="0" width="1200" height="1600" />
</clipPath>
<title>backneck01</title><g id="BACK_BLACK"><path id="back_neck" data-name="back neck" d="M628.3,648.2s53.5-75.7,70.3-85.9c0,0-2.1-8.2-85.9-8.2h-.1c-83.9,0-86,8.2-86,8.2,16.8,10.2,70.4,85.9,70.4,85.9Z" stroke="#000" stroke-linejoin="round" stroke-width="1.7"/></g></g>
<g clip-path="url(#backcape-clippath)" id="backcape" >
<clipPath id="backcape-clippath" ><rect x="0" y="0" width="1200" height="1600" />
</clipPath>
<title>backcape03</title><g id="capes"><g id="_03_wind_back_cape" data-name="03 wind back cape"><path d="M599.6,779.4,842,753.7l39,39.8s.6,24.8-68.2,21.1c-76.8-4.2-83.2,31.8-98.6,35.1-43.8,7.4-57.1,51.6-84.7,81.6L599.6,825h-2.7L570.5,931.3c-24.2-30-14.6-75.3-53.5-81.6-43.9-7.2-62.5-41.5-107.5-35.1-60.1,8.5-83.9-21.1-83.9-21.1l34.3-39.8,237,25.7Z" stroke="#000" stroke-linejoin="round"/></g></g></g>
<g clip-path="url(#legs-clippath)" id="legs" >
<clipPath id="legs-clippath" ><rect x="0" y="0" width="1200" height="1600" />
</clipPath>
<title>legs02</title><g id="LEGS"><g id="leg02"><path id="base" d="M648.5,880.7l-2.3,251.7-9.9,194.5h42.3l14-194.5c4.2-87.1,12.1-266.7,13.3-321.8,0-53.3-.9-90-.9-90H524.8l-.3,91.7,20.2,320.1.9,194.5h39s7.1-187.7,6.8-194.5l-6.3-250s35.8,4.8,63.4-2.2Z" fill="gray"/><path d="M656.6,877.6c-25.9,10.9-71.5,4.8-71.5,4.8l6.3,250c-1.5,44.8-6.8,194.5-6.8,194.5h-39l-.9-194.5L524.5,812.3l.3-91.7H705s.6,41.6.9,90c0,0-7.7,223.1-13.3,321.8l-14,194.5H636.3l9.9-194.5,2.3-252.2" fill="none" stroke="#000" stroke-linejoin="round"/></g></g></g>
<g clip-path="url(#boots-clippath)" id="boots" >
<clipPath id="boots-clippath" ><rect x="0" y="0" width="1200" height="1600" />
</clipPath>
<title>boots01</title><g id="left_boot" data-name="left boot"><polygon id="base" points="615.5 1266.8 620.6 1402 723 1402 732.8 1402 698.5 1374.3 698.2 1259.8 615.5 1266.8" fill="gray"/><polygon id="line" points="615.5 1266.8 620.6 1402 723 1402 732.8 1402 698.5 1374.3 698.2 1259.8 615.5 1266.8" fill="none" stroke="#000" stroke-linejoin="round"/><polygon points="698.2 1295.7 617.2 1295.7 615.9 1262.2 698.2 1259.8 698.2 1295.7" stroke="#000" stroke-linejoin="round"/><path id="accent" d="M616.4,1250.8l82,.6a14.6,14.6,0,0,1,14.4,14.5v17.8l-19.6.3-9.3-21.1-11.3,21.5-70.5,1.2-.3-20.1A14.5,14.5,0,0,1,616.4,1250.8Z" fill="#ccc"/><path id="line-2" data-name="line" d="M616.4,1250.8l82,.6a14.6,14.6,0,0,1,14.4,14.5v17.8l-19.6.3-9.3-21.1-11.3,21.5-70.5,1.2-.3-20.1A14.5,14.5,0,0,1,616.4,1250.8Z" fill="none" stroke="#000" stroke-linejoin="round"/></g><g id="right_boot" data-name="right boot"><polygon id="base-2" data-name="base" points="524.8 1266.8 529.9 1402 635.7 1402 645.5 1402 607.8 1374.3 607.5 1259.8 524.8 1266.8" fill="gray"/><polygon id="line-3" data-name="line" points="524.8 1266.8 529.9 1402 635.7 1402 645.5 1402 607.8 1374.3 607.5 1259.8 524.8 1266.8" fill="none" stroke="#000" stroke-linejoin="round"/><polygon points="607.5 1295.7 526.5 1295.7 525.2 1262.2 607.5 1259.8 607.5 1295.7" stroke="#000" stroke-linejoin="round"/><path id="accent-2" data-name="accent" d="M525.7,1250.8l81.9.6a14.6,14.6,0,0,1,14.5,14.5v17.8l-19.6.3-9.3-21.1-11.3,21.5-70.6,1.2-.2-20.1A14.5,14.5,0,0,1,525.7,1250.8Z" fill="#ccc"/><path d="M525.7,1250.8l81.9.6a14.6,14.6,0,0,1,14.5,14.5v17.8l-19.6.3-9.3-21.1-11.3,21.5-70.6,1.2-.2-20.1A14.5,14.5,0,0,1,525.7,1250.8Z" fill="none" stroke="#000" stroke-linejoin="round"/></g></g>
<g clip-path="url(#hat-clippath)" id="hat" >
<clipPath id="hat-clippath" ><rect x="0" y="0" width="1200" height="1600" />
</clipPath>
<title>hat18</title><g id="HATS"><g id="hat18"><path id="hat18black" d="M693.6,343c-17.4-2.6-34.8,5.7-52,11.5-27.1,9.3-56.3,19.3-91.4,13.5-10.4-1.8-27.1,2.5-40.1,8.5l19-18.6,12.6-2.2,2.4-4.8,8.3-6.1,16.6-6.1,23.3-5.4,23.7-2,24.1-.7,20.2-1,12,2.7,11.1,4.5,6.1,2.6Z" stroke="#000" stroke-linejoin="round"/><path id="base" d="M512.6,376.9c-4.4.8-12,2.5-17.5-5.3-.8-1.1-1.1-2.6-1.9-4.1,0,0,8.3,11.6,20.4-7,0,0,14.9-22.8,29.3-32.5l8.3-11.2c-.7-20.2-7.6-23-7.6-23l-25,1.3c-7.5-1.6-21.2-2-21.2-2l13.4-4.2c12.3-4.8,23.9-26.1,23.9-26.1,19-27.2,53-11.9,53-11.9,36.7,16.4,57.2,65.1,57,67.9,0,0,35.7,6.1,50,24.5a96.3,96.3,0,0,0-38.4-7s-12.5.6-22.4,4.9a126.5,126.5,0,0,1-19.7,6.7c-1.5.4-19.3,5.5-32,5.3,0,0-18-.5-26,1.6,0,0-12.2,1.2-23.8,11.7C532.4,366.5,520.8,375.5,512.6,376.9Z" fill="#262626"/><path id="accent" d="M551.2,316.8s37.9-37.9,81.6-22.8c0,0,9.8,15.9,11.9,24.8,0,0-40.1-22.5-101.8,9.2C542.9,328,550.5,317.4,551.2,316.8Z" fill="#ccc"/><path d="M694.7,343.3c-14.3-18.4-50-24.5-50-24.5.2-2.8-20.3-51.5-57-67.9,0,0-34.4-15.3-53,11.9,0,0-12.7,22.2-23.9,26.1l-13.4,4.2s13.7.4,21.2,2l25-1.3s6.9,3,7.6,23L542.9,328c-14.4,9.7-29.3,32.5-29.3,32.5-12.1,18.6-20.4,7-20.4,7,1.2,5.1,6.2,9.2,10.2,9.9,0,0,11.1,3.8,31.8-13.2,0,0,11.6-11.7,39-11s50.1-8.3,63.6-13.4C637.8,339.8,663.5,329.8,694.7,343.3Z" fill="none" stroke="#000" stroke-linecap="round" stroke-linejoin="round"/><path d="M535.8,291.6s6.1.4,8.6,2.7" fill="none" stroke="#000" stroke-linecap="round" stroke-linejoin="round"/><path d="M645.4,319.3s-39.2-23.6-102.5,8.7" fill="none" stroke="#000" stroke-linecap="round" stroke-linejoin="round"/><path d="M551.2,316.8s37.6-38.1,81.6-22.8" fill="none" stroke="#000" stroke-linecap="round" stroke-linejoin="round"/><ellipse id="accent-2" data-name="accent" cx="489.7" cy="292.9" rx="6.6" ry="9.6" transform="matrix(0.01, -1, 1, 0.01, 190, 778.42)" fill="#ccc"/><ellipse id="accent-3" data-name="accent" cx="489.7" cy="292.9" rx="6.6" ry="9.6" transform="matrix(0.01, -1, 1, 0.01, 190, 778.42)" fill="none" stroke="#000" stroke-linecap="round" stroke-linejoin="round"/></g></g></g>
<g clip-path="url(#face-clippath)" id="face" >
<clipPath id="face-clippath" ><rect x="0" y="0" width="1200" height="1600" />
</clipPath>
<title>head10</title><g id="_10_Circle_evil" data-name="10 Circle evil"><path d="M677,394.4l-24.2,4.9a7.6,7.6,0,0,0-5.9,5L608.8,509.4l41.8-2.9Z" fill="#99c9fe" stroke="#000" stroke-linejoin="round"/><path d="M610,566c-36.8-5.6-62.5-19.1-77.4-35.1a3.2,3.2,0,0,1-.6-2,12.2,12.2,0,0,0-6.4-10.5,5.6,5.6,0,0,1-2.4-2.1c-5.9-11.1-9-23.3-10.3-36.2a165.2,165.2,0,0,1,.1-30.7h.1a10.7,10.7,0,0,0,6.3-15.3,7.7,7.7,0,0,0-1.5-2.2c8.7-24.8,26.5-41.9,47.5-49.8a77.6,77.6,0,0,1,9.7-2.9l24.4-5.8,22.8,193.5Z" fill="#99c9fe" stroke="#000" stroke-linejoin="round"/><path d="M677,394.4c20.1,17.2,34.4,42.4,37.2,70.4,5.4,54.3-31.6,96.5-76.2,102.4-52.7,7-91.2-35.5-97.9-87.2-6.5-49.7,21.1-96.5,59.4-106.6a2.4,2.4,0,0,1,2.8,1.6l38.2,122.7Z" fill="#cbe7ff" stroke="#000" stroke-linejoin="round"/><path d="M655.2,436.1a23.1,23.1,0,0,0,2.1,11.8s7.6-7.3,8.9-12.4-.6-11.5-.6-11.5S655.7,429.4,655.2,436.1Z" fill="#99c9fe" stroke="#000" stroke-linejoin="round"/></g></g>
<g clip-path="url(#expression-clippath)" id="expression" >
<clipPath id="expression-clippath" ><rect x="0" y="0" width="1200" height="1600" />
</clipPath>
<title>head03exp08</title><g id="_03_circle" data-name="03 circle"><g id="_03_circle_exp08" data-name="03 circle exp08"><path d="M584.1,480.9c-4.3,0-7.6-2.9-7.6-8.1v-8c0-5.2,3.3-3.9,7.7-2.4s7.8,4.2,7.8,9.4v1A7.7,7.7,0,0,1,584.1,480.9Z"/><path d="M691.7,481a6.7,6.7,0,0,1-6.6-6.1l-.2-2.6c1.4.3,2.3.4,5.4-1.6s7.1-7.4,7.4-3.8l.6,6.8a6.6,6.6,0,0,1-6.1,7.2Z"/><path d="M666.4,510.4c.3-.6-39.4,9.9-74.2-15.1,0,0,8.6,24.6,34.1,35.2a28,28,0,0,0,33-9A79.1,79.1,0,0,0,666.4,510.4Z" fill="#fff"/><path d="M637,533.3a29.3,29.3,0,0,1-10.9-2.1c-25.6-10.6-34.5-35.4-34.6-35.6a.8.8,0,0,1,.3-.9.6.6,0,0,1,.8,0c19.7,14.2,45.3,19.5,72.2,15.1,1.7-.3,1.9-.3,2.2.1a.8.8,0,0,1,.1.8,89.5,89.5,0,0,1-7.2,11.2A28.5,28.5,0,0,1,637,533.3Zm-43.1-35.9c2.9,6.4,12.4,24,32.7,32.4a27.2,27.2,0,0,0,32.1-8.8,85.7,85.7,0,0,0,6.4-9.7C638.7,515.6,613.6,510.7,593.9,497.4Z"/><path d="M629.5,547.8a.9.9,0,0,1-.4-1.6c7.1-4,14.2-3.4,17-2.5a.9.9,0,0,1,.6,1.1.9.9,0,0,1-1.1.5c-2.5-.8-9.1-1.4-15.7,2.4Z"/><path d="M586.5,500.4h-.3a.7.7,0,0,1-.3-1c4.3-7.1,9.7-7.2,13.5-6.6a.7.7,0,0,1,.6.9.9.9,0,0,1-.9.6c-3.5-.6-8.1-.4-11.9,5.9A.8.8,0,0,1,586.5,500.4Z"/><path d="M593.5,471.8h-1a47.3,47.3,0,0,1-20.8-13.5l-1.9-2.1a3.3,3.3,0,1,1,5-4.4l1.9,2.1a39,39,0,0,0,17.8,11.5,3.4,3.4,0,0,1,2.2,4.2A3.4,3.4,0,0,1,593.5,471.8Z"/><path d="M680.9,480.2a3.5,3.5,0,0,1-3-1.8,3.4,3.4,0,0,1,1.5-4.5,49.9,49.9,0,0,0,18.1-15.4h0a3.5,3.5,0,0,1,4.7-.8,3.2,3.2,0,0,1,.7,4.6v.2a55.4,55.4,0,0,1-20.4,17.4A2.8,2.8,0,0,1,680.9,480.2Z"/><path d="M637.3,533.4a.7.7,0,0,1-.6-.4.6.6,0,0,1,.2-1c.1-.1,8.2-5.5,13-20.2a.8.8,0,0,1,1.5.5c-5.1,15.2-13.3,20.7-13.7,20.9Z"/><path d="M625.3,530.8a.5.5,0,0,1-.6-.4.8.8,0,0,1,.2-1c.1-.1,4.2-2.8,9.4-17.9a.7.7,0,0,1,1-.4.6.6,0,0,1,.4.9c-5.4,15.9-9.8,18.6-10,18.7Z"/><path d="M614.2,523.5h-.5a.8.8,0,0,1-.1-1.1,83.4,83.4,0,0,0,7.3-13.3.8.8,0,0,1,1-.3.7.7,0,0,1,.4,1c-4.3,9.2-7.4,13.4-7.5,13.5A.9.9,0,0,1,614.2,523.5Z"/><path d="M605.2,516.4l-.5-.2a.7.7,0,0,1-.1-1c0-.1.8-1.2,5.2-9.5a.8.8,0,0,1,1.4.7c-3.6,6.7-5.2,9.4-5.5,9.7A.5.5,0,0,1,605.2,516.4Z"/></g></g></g>
<g clip-path="url(#cape-clippath)" id="cape" >
<clipPath id="cape-clippath" ><rect x="0" y="0" width="1200" height="1600" />
</clipPath>
<title>cape03_eviltier7</title><g id="CAPES-2" data-name="CAPES"><g id="wind_tier07_03"><path id="cape" d="M691.7,625.2c-8.4-5.6-18-8.9-27.8-11.1.4,8,.4,12.7.2,23.8l-1.5,25.3-35.9.6-23.4-49.3-36.6.7c-10.7.3-20.7,4.1-30.2,9-41,21.3-154.8,90.1-210.9,169.3,16.8-16.5,64.6,2.9,86.6,6.9,24.4,4.5,51.1-15.7,66.3-10.2,45.4,16.4,94.1,49.8,146.1,42.3,24-3.4,28.9-35,33.9-49.1h.8c5,14.1,12.9,49.1,37.2,49.1,36.4,0,37.2-41.5,85.5-43.1,18.3-.5,27.8,13.8,52.4,10.3,22.8-3.2,25.1-22.6,46.5-6.2C828.4,723.9,765.3,674.1,691.7,625.2Z" fill="#2b2b2b"/><path id="line" d="M691.7,625.2c-8.4-5.6-18-8.9-27.8-11.1.4,8,.4,12.7.2,23.8l-1.5,25.3-35.9.6-23.4-49.3-36.6.7c-10.7.3-20.7,4.1-30.2,9-41,21.3-154.8,90.1-210.9,169.3,16.8-16.5,64.6,2.9,86.6,6.9,24.4,4.5,51.1-15.7,66.3-10.2,45.4,16.4,94.1,49.8,146.1,42.3,24-3.4,28.9-35,33.9-49.1h.8c5,14.1,12.9,49.1,37.2,49.1,36.4,0,37.2-41.5,85.5-43.1,18.3-.5,27.8,13.8,52.4,10.3,22.8-3.2,25.1-22.6,46.5-6.2C828.4,723.9,765.3,674.1,691.7,625.2Z" fill="none" stroke="#000" stroke-linejoin="round"/><line id="cape_line" data-name="cape line" x1="467.9" y1="789.8" x2="510.3" y2="756.2" fill="none" stroke="#000" stroke-miterlimit="10"/><line id="cape_line-2" data-name="cape line" x1="745.8" y1="738.2" x2="784.9" y2="789" fill="none" stroke="#000" stroke-miterlimit="10"/><path id="cape_center_line" data-name="cape center line" d="M658.9,785.1c-.5-25.9-1.8-53.2-4.5-77.4" fill="none" stroke="#000" stroke-linejoin="round"/><path id="collar" d="M654.8,573.4,642,620.1l-18.5-46.7s-80.1-.9-96.9-11.1l26.3,54.4c7.1.8,48.3-5.9,53.8,38.6,3.5,23.9,13.2,56.6,49.6,52.2,38.5-4.6,5.2-88.2,16.1-90.8l26.2-54.4C681.8,572.5,654.8,573.4,654.8,573.4Z" fill="#2b2b2b"/><path id="line-2" data-name="line" d="M654.8,573.4,642,620.1l-18.5-46.7s-80.1-.9-96.9-11.1l26.3,54.4c7.1.8,48.3-5.9,53.8,38.6,3.5,23.9,13.2,56.6,49.6,52.2,38.5-4.6,5.2-88.2,16.1-90.8l26.2-54.4C681.8,572.5,654.8,573.4,654.8,573.4Z" fill="none" stroke="#000" stroke-linejoin="round"/><polygon id="medallion" points="642 618.8 661.8 656.9 627.1 658.3 642 618.8" fill="#ccc"/><polygon points="642 618.8 661.8 656.9 627.1 658.3 642 618.8" fill="none" stroke="#000" stroke-linejoin="round"/></g></g></g>
<g clip-path="url(#left-hand-back-clippath)" id="left-hand-back" >
<clipPath id="left-hand-back-clippath" ><rect x="0" y="0" width="1200" height="1600" />
</clipPath>
<title>left-hand-back</title><g id="Hands"><g id="uiux"><g id="down_lefthand"><g id="bottom_part" data-name="bottom part"><path id="base" d="M885.5,876.6s5.3,2.7,9.6,2,9-5.8,9.4-11-2-10.2-5.8-13.8a32,32,0,0,0-13.6-7.2c-1.7-.5-2.7-1-4.4-1.4l-.5.4,1.5-4.3c2.5-7.6-6.3-17-6.3-17-8-6.8-41.8-6.4-41.8-6.4s-21.5,4.5-31.5,43a12.4,12.4,0,0,0,2.5,10c6,7.8,17.2,20,32.1,22.6.4.1.4.4.7.3s1.1,1.5,1.2,2.1c1.4,4.6,6.1,7.1,9.8,10.7a26.6,26.6,0,0,0,15.8,7.1c1.9.1,4.6-.8,6.3-1.4,4.9-1.6,7-9,5.5-14l-.2-1.2a12.3,12.3,0,0,0,5.7.4c3.4-.8,4.2-.4,5.7-3.5A17.3,17.3,0,0,0,885.5,876.6Zm-34.8.8" fill="#fff"/><path id="accent" d="M835.5,817.4c-4.4-4.9-14.1-9-14.1-9-6,.4-23.9,10.6-30,28.8s-4.2,37,1.2,38.2c0,0,17.7,4.8,19.3,4.8l-.2-1.1-2.3-2.4c-3.9-3.7-8.4-15.3-2.1-30.8s20.3-28.5,26.2-28.4Z" fill="#ccc"/><g id="outline"><path d="M837,893.2c-10.9-.6-19.5-7.9-26.3-15.1,0,0-12-10.1-3.4-32.2,6.2-16.2,21.9-29.7,28.5-28" fill="none" stroke="#000" stroke-linecap="round" stroke-linejoin="round"/><path d="M836.1,818c-4.4-4.8-14.7-9.6-14.7-9.6-6,.4-23.9,10.6-30,28.8s-4.2,37,1.2,38.2c0,0,17.7,4.8,19.3,4.8" fill="none" stroke="#000" stroke-linecap="round" stroke-linejoin="round"/></g></g></g></g></g></g>
<g clip-path="url(#wand-clippath)" id="wand" >
<clipPath id="wand-clippath" ><rect x="0" y="0" width="1200" height="1600" />
</clipPath>
<title>wand08</title><g id="Hands"><g id="uiux"><g id="down_lefthand"><g id="wand08"><path id="base" d="M1026.5,707.9a67.4,67.4,0,0,0-5.7-53.6c0,17-4.2,34.5-16.3,46.4-5.2,5.3-14.3,9-19.8,4.1l-4.2-3-5.7-4.1-4.1-2.9c-6.4-3.7-5.8-13.5-2.6-20.1,7.4-15.3,22.6-24.9,38.7-30.4a67,67,0,0,0-52.5,11.9,68.7,68.7,0,0,0-27.5,47.1,38,38,0,0,1,27.1,2.7,23.2,23.2,0,0,1,3.1,1.9l-136,190c-.9,1.3-.7,3.2.1,5H821l-8.5,11.8a2.9,2.9,0,0,0-.4,1.6l-1-.2-8.3-.9a4,4,0,0,0-4.1,2.8l-5.2,17.4a4.2,4.2,0,0,0,.8,3.6,44.6,44.6,0,0,0,6.7,5.9l1.7,1.3a42.7,42.7,0,0,0,7.8,4.4,4.1,4.1,0,0,0,3.7-.4L829,939.5a3.7,3.7,0,0,0,1.3-4.7l-3.5-7.5a1.9,1.9,0,0,0-.5-.9,2.6,2.6,0,0,0,1.3-1l8.6-11.9c1.8.1,3.6-.3,4.4-1.6l136.1-190a21,21,0,0,1,2.7,2.4,38.3,38.3,0,0,1,11.4,24.8A69,69,0,0,0,1026.5,707.9Z" fill="#2b2b2b"/><path id="accent" d="M836.2,913.5l-8.6,11.9c-1.3,1.9-5.1,1.4-6.9.1l-6-4.3c-1.8-1.3-3.5-4.7-2.2-6.6l8.5-11.8a9.7,9.7,0,0,0,3.4,4l7.3,5.2S834.1,913.8,836.2,913.5Z" fill="#ccc"/><path d="M956.9,708.1,821,897.9c-1.7,2.3.5,6.8,2.9,8.5l7.7,5.6c2.4,1.7,7.3,2.3,9-.1L976.5,722.2" fill="none" stroke="#000" stroke-linecap="round" stroke-linejoin="round"/><path d="M826.4,926.6a1.6,1.6,0,0,1,.4.7l3.5,7.5a3.7,3.7,0,0,1-1.3,4.7l-14.8,10.6a4.1,4.1,0,0,1-3.7.4,42.7,42.7,0,0,1-7.8-4.4l-1.7-1.3a44.6,44.6,0,0,1-6.7-5.9,4.2,4.2,0,0,1-.8-3.6l5.2-17.4a4,4,0,0,1,4.1-2.8l8.3.9.9.2" fill="none" stroke="#000" stroke-linecap="round" stroke-linejoin="round"/><path d="M821,902.8l-8.5,11.8c-1.3,1.9.4,5.3,2.2,6.6l6,4.3c1.8,1.3,5.6,1.8,6.9-.1l8.6-11.9" fill="none" stroke="#000" stroke-linecap="round" stroke-linejoin="round"/><path d="M799.8,916.1a25.3,25.3,0,0,0,9.3,12.8l2.2,1.6,1.6,1.2,2.3,1.6a24.9,24.9,0,0,0,15.1,4.7" fill="none" stroke="#000" stroke-linecap="round" stroke-linejoin="round"/><path d="M959.9,710.7c-1.3-2.1-3.7-3.5-6-4.7a38,38,0,0,0-27.1-2.7,68.7,68.7,0,0,1,27.5-47.1,67,67,0,0,1,52.5-11.9c-16.1,5.5-31.3,15.1-38.7,30.4-3.2,6.6-3.4,15.8,2.6,20.1l3,2.1,8,5.8,3,2.1c6,4.3,14.6,1.2,19.8-4.1,12.1-11.9,16.3-29.4,16.3-46.4a67.4,67.4,0,0,1,5.7,53.6,69,69,0,0,1-35.7,41.2,38.3,38.3,0,0,0-11.4-24.8c-1.8-1.8-3.9-3.6-6.3-4.1" fill="none" stroke="#000" stroke-linecap="round" stroke-linejoin="round"/></g></g></g></g></g>
<g clip-path="url(#left-hand-front-clippath)" id="left-hand-front" >
<clipPath id="left-hand-front-clippath" ><rect x="0" y="0" width="1200" height="1600" />
</clipPath>
<title>Lhand01</title><g id="uiux"><g id="down_lefthand"><g id="top_part" data-name="top part"><path id="base" d="M821.3,829a24,24,0,0,0,4.8,17c6.3,7.8,19.7,7.6,29.2,5.4l-3,10.7s-.1,4.2,1.6,6.9c0,0-5.1.5-4.8,8.9v.5s-5.1-3.2-9.5,4-3.5,11.6.3,15.9,13.1,11.9,13.1,11.9a23.2,23.2,0,0,0,11.1,3.4c6.8.4,14.5-5.4,12-16.9,0,0,9.7,2.7,12.9-4.4s-3.4-15.8-3.4-15.8,13.4,6.9,18-4.9c0,0,4.5-10.9-6.9-19.8a46.1,46.1,0,0,0-16.3-6.7s8.2-16.7-12-24.7a198.6,198.6,0,0,0-32.4-2.3l-3.6,1.4c-5.2,1.5-7.2,4.8-9.7,7.7Z" fill="#fff"/><g id="outline"><path d="M834.4,818c4.8,0,23.9.4,34.7,2.8,3,.6,8.3,4.3,9.9,7.2s4.1,9,2.7,13.3c0,0-4.9,12.9-9.7,22.2,0,0-6.9,17.8-15.8,8.4-3-3.2-4.9-7.2-3.3-12l5.1-15.4" fill="none" stroke="#000" stroke-linecap="round" stroke-linejoin="round"/><path d="M880.7,845.2c1.7.4,2.7.9,4.4,1.4a32,32,0,0,1,13.6,7.2c3.8,3.6,6.3,8.7,5.8,13.8s-4.3,10.2-9.4,11-8.7-1.6-12.6-3.8L870.2,868" fill="none" stroke="#000" stroke-linecap="round" stroke-linejoin="round"/><path d="M853.8,868.9a4.6,4.6,0,0,0-3.3,2.7c-5.9,10,6,15.1,6,15.1l12.3,6.8c3.9,2.2,8.2,4.5,12.6,3.7s7.7-3.6,8.1-8.7-1.3-8.6-3.8-11.9" fill="none" stroke="#000" stroke-linecap="round" stroke-linejoin="round"/><path d="M876,897.3c.5,2.5.8,5.6,0,8-1.7,5-6.6,8.8-11.8,8.4s-9.9-1.8-13.2-4.9l-10.3-9.5s-8.9-8.6-.4-17.9c0,0,3.2-5.2,8.8-2.9" fill="none" stroke="#000" stroke-linecap="round" stroke-linejoin="round"/><path d="M855.7,851.4s-29.6,7.2-33.6-13.9" fill="none" stroke="#000" stroke-linecap="round" stroke-linejoin="round"/></g></g></g></g></g>
<g clip-path="url(#right-hand-clippath)" id="right-hand" >
<clipPath id="right-hand-clippath" ><rect x="0" y="0" width="1200" height="1600" />
</clipPath>
<title>Rhand01</title><g id="uiux"><g id="down_righthand"><path id="accent" d="M414.6,906.8c-3.3-7.1-5.4-27.1-5.4-27.1,3.3-5.5,30.5-13.1,54.2-8s37.3,21.5,36,27.4c0,0-12,15.4-14.2,16.6" fill="#ccc"/><path id="base" d="M450.4,893.7c10.2,1.9,21.2,6.3,32.1,18.2l.8,1c2,2.2,5.5,10,5.9,12.1s1.3,4.3,2.1,6.8l3.2,14,4.7,15.4-1.8,5a15.5,15.5,0,0,1-6.6,7.8c-2.3,1-3.5.6-6.8.7-1,3.5-3.8,6-6.5,9.1s-6.9,2.9-8.3,2.6c-3.1-.6-8.3-.6-11.8-9.6-2,10-9.3,12.5-11.7,12.5-5.6.1-10-1.3-11.6-3.1s-3.2-7.6-3.5-11.8l-1.2,2.4a9.3,9.3,0,0,1-3.3,4.5l-2.3,1.2c-3.2-.9-5.2-2.2-8.5-4.2s-7-13.5-7.6-17.8c-2.3-18.7.9-37.3,5.2-48.1,0,0,1.7-7.8,10.4-14C426.4,896.2,441.2,892.1,450.4,893.7Z" fill="#fff"/><g id="outline"><path d="M414.6,906.8c-3.3-7.1-5.4-27.1-5.4-27.1,3.3-5.5,30.5-13.1,54.2-8s37.3,21.5,36,27.4c0,0-11.5,15.2-13.7,16.4" fill="none" stroke="#000" stroke-linecap="round" stroke-linejoin="round"/><path d="M485.1,915.5a53.7,53.7,0,0,0-34.8-21.8c-9.2-1.6-24.1,2.6-27.2,4.7-8.6,6.2-10.3,14.1-10.3,14.1-4.4,10.7-6.1,24.5-5.6,41.5.3,10.8,3.6,21,8.1,24.3s10.9,8.1,15.4-4" fill="none" stroke="#000" stroke-linecap="round" stroke-linejoin="round"/><path d="M483.6,941.1c3.8,17.9,3.5,33.6-4.5,41.3-3.8,3.6-9.4,5-14.2,2.9-3.1-1.2-6.2-3.9-7.7-9.5" fill="none" stroke="#000" stroke-linecap="round" stroke-linejoin="round"/><path d="M457.2,969.4c1.2,12.6-4.2,17.7-9.5,19.4s-12.3-.8-14-3-4.2-12.9-2.3-18.2" fill="none" stroke="#000" stroke-linecap="round" stroke-linejoin="round"/><path d="M485.4,915.6c6.5,12.7,8,30.8,13.5,43.9.9,2.2-1.1,5.6-2,7.7" fill="none" stroke="#000" stroke-linecap="round" stroke-linejoin="round"/><path d="M484,974.4h3.2c4.2.1,5.9-1.5,8.2-5l1.5-2.1" fill="none" stroke="#000" stroke-linecap="round" stroke-linejoin="round"/></g></g></g></g>
</svg>
